<svg width="19" height="181" viewBox="0 0 19 181" fill="none" xmlns="http://www.w3.org/2000/svg">
<path d="M10.32 20.08V11.12H18.52V9.84H10.32V0.839999H8.84V9.84H0.639999V11.12H8.84V20.08H10.32ZM10.32 60.08V51.12H18.52V49.84H10.32V40.84H8.84V49.84H0.639999V51.12H8.84V60.08H10.32ZM10.32 100.08V91.12H18.52V89.84H10.32V80.84H8.84V89.84H0.639999V91.12H8.84V100.08H10.32ZM10.32 140.08V131.12H18.52V129.84H10.32V120.84H8.84V129.84H0.639999V131.12H8.84V140.08H10.32ZM10.32 180.08V171.12H18.52V169.84H10.32V160.84H8.84V169.84H0.639999V171.12H8.84V180.08H10.32Z" fill="#CEFF66"/>
</svg>
