<svg width="188" height="21" viewBox="0 0 188 21" fill="none" xmlns="http://www.w3.org/2000/svg">
<path d="M8.33157 20.08V11.12H0.131566V9.84H8.33157V0.839999H9.81157V9.84H18.0116V11.12H9.81157V20.08H8.33157ZM50.7909 20.08V11.12H42.5909V9.84H50.7909V0.839999H52.2709V9.84H60.4709V11.12H52.2709V20.08H50.7909ZM93.2503 20.08V11.12H85.0503V9.84H93.2503V0.839999H94.7303V9.84H102.93V11.12H94.7303V20.08H93.2503ZM135.71 20.08V11.12H127.51V9.84H135.71V0.839999H137.19V9.84L145.39 9.84V11.12L137.19 11.12V20.08H135.71ZM178.169 20.08V11.12H169.969V9.84H178.169V0.839999H179.649V9.84H187.849V11.12H179.649V20.08H178.169Z" fill="#CEFF66"/>
</svg>
