<svg width="142" height="117" viewBox="0 0 142 117" fill="none" xmlns="http://www.w3.org/2000/svg">
<path d="M42.8971 3.30273C42.8971 -8.13854 42.8971 26.1853 42.8971 37.6265C42.8971 59.6577 47.946 80.6918 52.651 101.861C53.6349 106.288 55.3124 110.193 57.3917 114.12C59.4409 117.99 62.1629 107.916 63.0588 106.764C69.9666 97.8843 75.1116 86.6603 80.6593 76.7992C86.9632 65.5942 93.5073 54.6049 100.222 43.6196C102.333 40.1646 104.121 35.9949 106.869 32.9411C111.197 28.134 106.761 31.0098 103.219 31.7969C76.9755 37.6278 50.6064 40.7206 25.2965 51.7919C18.7515 54.6549 7.41556 56.9757 2.46482 61.9256C0.129209 64.2608 7.2637 66.0662 9.05823 66.0662C14.7176 66.0662 19.8723 69.2604 25.242 70.7517C42.8153 75.6324 61.0111 78.1039 78.9701 82.7378C87.6349 84.9735 96.8063 84.6333 105.616 85.7343C107.081 85.9174 115.75 87.8465 115.261 86.6605C113.642 82.7297 109.609 80.7481 107.632 77.2896C106.206 74.7947 102.245 69.6921 99.7857 68.2455C92.0613 63.7025 85.2597 53.9398 78.9701 47.6513C67.3364 36.0194 55.0538 24.6701 47.8013 10.1675" stroke="white" stroke-width="4" stroke-linecap="round"/>
<path d="M127.249 5.26367C126.865 8.71649 122.693 14.5162 120.165 16.8139C118.528 18.3021 118.387 20.9718 116.46 21.9352" stroke="white" stroke-width="4" stroke-linecap="round"/>
<path d="M104.69 2.32227V14.0904" stroke="white" stroke-width="4" stroke-linecap="round"/>
<path d="M137.058 22.916C132.065 23.4152 127.051 27.2317 122.345 28.8001" stroke="white" stroke-width="4" stroke-linecap="round"/>
<path d="M140 37.6263C139.756 35.6779 129.138 36.6456 127.249 36.6456" stroke="white" stroke-width="4" stroke-linecap="round"/>
</svg>
