<svg width="253" height="19" viewBox="0 0 253 19" fill="none" xmlns="http://www.w3.org/2000/svg">
<path d="M2 14.6243C9.31256 12.3189 16.9456 11.3409 24.5621 10.7003C41.9564 9.23749 60.7976 7.78805 77.675 13.2561C81.0766 14.3582 82.775 15.0863 85.536 16.6895C86.402 17.1924 85.4703 17.0871 86.0464 16.3539C87.4053 14.6249 90.104 13.4196 91.8146 12.6365C101.54 8.18441 112.209 5.33894 122.723 3.62689C135.2 1.59505 149.398 0.665276 161.364 5.74376C163.751 6.75668 166.382 8.60617 168.102 10.6487C168.515 11.1385 169.132 13.7397 169.608 14.1338C170.263 14.6758 171.254 13.735 172.084 13.5659C177.014 12.5608 180.042 12.3012 185.534 11.9395C195.4 11.2897 204.432 11.047 214.375 11.3457C219.426 11.4975 224.484 11.7109 229.51 12.2493C263.2 15.8582 223.041 12.2941 251 16.9477" stroke="#FCFF6F" stroke-width="4" stroke-linecap="round"/>
</svg>
