<svg width="253" height="17" viewBox="0 0 253 17" fill="none" xmlns="http://www.w3.org/2000/svg">
<path d="M2 12.3053C2.4666 11.7848 3.45517 11.9009 4.05411 11.8845C7.9096 11.7785 11.9602 11.5763 15.7955 12.0082C18.1056 12.2684 18.9597 12.7592 20.3095 14.4342C22.155 16.7242 28.3328 11.3692 29.6925 10.6715C35.2093 7.84043 41.4464 4.91144 47.8498 4.97793C51.6955 5.01787 51.827 5.90256 55.0519 7.2306C58.8965 8.81388 59.3837 8.72387 64.2066 8.49308C82.9498 7.59621 101.687 5.21285 120.428 4.13628C136.877 3.19142 168.308 1.56951 185.45 2.1064C352.65 7.34315 138.818 -0.168528 208.324 7.40388" stroke="#FCFF6F" stroke-width="4" stroke-linecap="round"/>
</svg>
