<svg width="312" height="74" viewBox="0 0 312 74" fill="none" xmlns="http://www.w3.org/2000/svg">
<path d="M2.2 60.24C1.56 60.8 0.8 59.88 1.24 59.32C7.68 50.88 10.64 41.92 13.08 31.16H3.36C2.72 31.16 2.24 30.68 2.24 30.04C2.24 29.44 2.72 29 3.36 29H14.88V2.59999C14.88 1.44 15.76 0.599997 16.96 0.599997C18.12 0.599997 18.96 1.44 18.96 2.59999V29H24.64C26.16 29 27.12 28.36 28.08 28.36C29.08 28.36 29.76 29.04 29.76 30.04C29.76 31.04 29.08 31.72 28.08 31.72C27.12 31.72 26.16 31.16 24.72 31.16H18.96V71.16C18.96 72.36 18.12 73.24 16.96 73.24C15.76 73.24 14.88 72.36 14.88 71.16V40.28C12.32 47.92 8.24 55.16 2.2 60.24ZM3.76 7.56C3.52 7 4.32 6.52 4.8 6.92C8.16 9.96 11.84 16.76 12.64 21.64C13.2 24.84 9.28 25.32 8.72 22.52C7.52 17 5.36 11 3.76 7.56ZM20.88 36.2C20.48 35.56 21.32 34.92 21.84 35.28C25.76 38.08 28.96 41.24 30.32 45.8C31.12 48.6 27.52 50.2 26.32 47.08C24.96 43.56 23.2 39.48 20.88 36.2ZM21.12 23.56C23.36 18.76 24.68 13.72 25.72 8.31999C26.28 5.52 30.16 6.16 29.72 9.2C28.92 14.56 25.68 21.36 22.08 24.36C21.56 24.8 20.8 24.2 21.12 23.56ZM30.32 28.84C30.32 28.12 30.8 27.64 31.44 27.64H48.88V20.28H36.48C35.84 20.28 35.36 19.84 35.36 19.24C35.36 18.6 35.84 18.12 36.48 18.12H48.88V10.92H33.44C32.84 10.92 32.4 10.48 32.4 9.88C32.4 9.28 32.84 8.84 33.44 8.84H48.88V2.36C48.88 1.2 49.76 0.359995 50.96 0.359995C52.16 0.359995 53.04 1.2 53.04 2.36V8.84H63.6C65.12 8.84 66.08 8.2 67.04 8.2C68.04 8.2 68.72 8.88 68.72 9.88C68.72 10.88 68.04 11.56 67.04 11.56C66.08 11.56 65.12 10.92 63.68 10.92H53.04V18.12H60.96C62.48 18.12 63.44 17.56 64.4 17.56C65.4 17.56 66.08 18.24 66.08 19.24C66.08 20.16 65.4 20.84 64.4 20.84C63.44 20.84 62.48 20.28 61.04 20.28H53.04V27.64H65.92C67.6 27.64 68.64 27 69.6 27C70.68 27 71.44 27.76 71.44 28.84C71.44 29.84 70.68 30.52 69.6 30.52C68.64 30.52 67.6 29.88 66 29.88H31.44C30.8 29.88 30.32 29.44 30.32 28.84ZM36.08 70.76V34.68C36.08 33.48 36.92 32.6 38.08 32.6C39.28 32.6 40.16 33.48 40.16 34.68V35.72H62.4V34.52C62.4 33.36 63.28 32.52 64.48 32.52C65.64 32.52 66.48 33.36 66.48 34.52V61.72C66.48 69.28 63.2 73.6 54.56 72.12C53.92 72 53.84 70.92 54.56 70.84C61.28 69.96 62.4 67.08 62.4 60.36V56.68H40.16V70.76C40.16 71.96 39.28 72.84 38.08 72.84C36.92 72.84 36.08 71.96 36.08 70.76ZM40.16 54.6H62.4V47.24H40.16V54.6ZM40.16 45.16H62.4V37.8H40.16V45.16ZM82.08 72.2C81.4 72.68 80.68 71.68 81.2 71.16C89.48 62.32 93.92 51.16 94.68 39.16H82C81.44 39.16 80.96 38.6 80.96 38.12C80.96 37.56 81.44 37.08 82 37.08H94.76L94.8 35.4C94.8 32.52 98.96 32.52 98.96 35.48C98.96 50.52 93.92 63.88 82.08 72.2ZM83 16.88C82.52 16.48 82.92 15.6 83.56 15.8C88.76 17.44 94.08 20.44 96.8 25.4C98.24 28.12 94.96 30.28 93.2 27.8C89.84 23 87.6 20.44 83 16.88ZM86.4 2.68C85.92 2.32 86.24 1.4 86.88 1.56C92.32 2.84 97.52 5.96 100.24 10.84C101.68 13.56 98.4 15.72 96.64 13.24C93.28 8.44 90.8 6.04 86.4 2.68ZM95.2 60.2C94.68 59.6 95.44 58.6 96.16 59.16C102.56 64.2 108.16 65.08 115.6 65.8C125.28 66.76 138 66.36 149.28 65.24C152.64 64.92 152.8 69.4 149.68 69.8C138.56 71.08 124.72 71.08 114.64 69.64C106.32 68.44 100.64 66.68 95.2 60.2ZM101.28 46.6C101.28 45.96 101.72 45.52 102.36 45.52H115.28V35.92H106.2C105.56 35.92 105.12 35.48 105.12 34.84C105.12 34.2 105.56 33.76 106.2 33.76H115.28V28.92C115.28 27.68 116.12 26.84 117.36 26.84C118.56 26.84 119.36 27.68 119.36 28.92V33.76H132.8V28.92C132.8 27.68 133.6 26.84 134.8 26.84C136.04 26.84 136.88 27.68 136.88 28.92V33.76H142.44C144.08 33.76 145.08 33.04 146.12 33.04C147.12 33.04 147.84 33.76 147.84 34.84C147.84 35.8 147.12 36.48 146.12 36.48C145.08 36.48 144.08 35.92 142.52 35.92H136.88V45.52H145.88C147.44 45.52 148.44 44.88 149.4 44.88C150.4 44.88 151.12 45.6 151.12 46.6C151.12 47.6 150.4 48.32 149.4 48.32C148.44 48.32 147.44 47.68 145.96 47.68H102.36C101.72 47.68 101.28 47.24 101.28 46.6ZM103.2 61.08C109.96 58.24 114.92 54.44 119.44 49.88C121.28 48.04 124.48 50.44 122.64 52.76C118.64 57.8 110.32 61.64 103.44 62.28C102.8 62.32 102.44 61.4 103.2 61.08ZM105.52 18.76V5.24C105.52 4.12 106.32 3.31999 107.52 3.31999C108.6 3.31999 109.36 4.12 109.36 5.24V5.72H119.84V5.24C119.84 4.12 120.6 3.31999 121.68 3.31999C122.88 3.31999 123.68 4.12 123.68 5.32V16.68C123.68 17.76 122.88 18.52 121.68 18.52C120.6 18.52 119.84 17.76 119.84 16.68V15.88H109.36V18.44C109.36 20.44 110.24 21.48 112.4 21.64C114.72 21.8 117.6 21.88 120 21.72C122.16 21.64 123.12 20.76 124.08 19.32C124.4 18.84 125.16 19.08 125.12 19.72C124.96 22.52 123.28 25 120.08 25.24C117.68 25.4 114.48 25.4 112 25.24C107.76 24.92 105.52 22.52 105.52 18.76ZM109.36 13.8H119.84V7.8H109.36V13.8ZM119.36 45.52H132.8V35.92H119.36V45.52ZM128.4 18.76V5.24C128.4 4.12 129.2 3.31999 130.4 3.31999C131.48 3.31999 132.24 4.12 132.24 5.24V5.72H142.8V5.16C142.8 4.08 143.56 3.31999 144.64 3.31999C145.76 3.31999 146.56 4.12 146.56 5.24V16.68C146.56 17.76 145.76 18.52 144.64 18.52C143.56 18.52 142.8 17.76 142.8 16.68V15.88H132.24V18.44C132.24 20.44 133.12 21.48 135.28 21.64C137.6 21.8 140.48 21.88 142.88 21.72C145.04 21.56 146.08 20.8 146.96 19.32C147.24 18.84 148.04 19.08 148 19.72C147.84 22.52 146.16 25 142.96 25.24C140.56 25.4 137.36 25.4 134.88 25.24C130.64 25 128.4 22.52 128.4 18.76ZM129.8 50.76C129.04 50.36 129.36 49.36 130.12 49.48C136.2 50.36 144 53.56 148.4 57.84C150.8 60.2 148 63.56 145.56 61.48C140.04 56.72 135.28 53.56 129.8 50.76ZM132.24 13.8H142.8V7.8H132.24V13.8ZM212.4 71.8C211.52 71.6 211.68 70.56 212.4 70.52C219.04 70.04 220.4 66.84 220.4 60.36V40.6H208.88C204.32 40.28 201.12 37.32 201.12 32.76V28.12H191.4C190.56 37 184.6 42.64 174.4 44.76C173.68 44.92 173.44 43.8 174.08 43.56C181.68 40.28 186.12 35.84 187.2 28.12H172V70.76C172 71.96 171.16 72.84 170 72.84C168.8 72.84 167.92 71.96 167.92 70.76V24.68C167.92 23.48 168.8 22.6 170 22.6C171.16 22.6 172 23.48 172 24.68V26.04H200.32C203.36 23 205.76 18.72 207.04 15.88C208.24 13.24 212.32 14.6 210.96 17.64C209.52 20.88 206.96 24.04 203.76 26.04H220.4V24.76C220.4 23.56 221.28 22.68 222.48 22.68C223.64 22.68 224.48 23.56 224.48 24.76V61.8C224.48 69.64 219.96 73.44 212.4 71.8ZM162.08 12.12C162.08 11.48 162.56 11 163.2 11H224.4C225.92 11 226.96 10.36 228 10.36C229.04 10.36 229.76 11.08 229.76 12.12C229.76 13.16 229.04 13.88 228 13.88C226.96 13.88 225.92 13.24 224.48 13.24H163.2C162.56 13.24 162.08 12.76 162.08 12.12ZM179.52 15.48C179.12 15 179.52 14.28 180.08 14.44C183.84 15.48 187.92 18.52 189.44 21.8C190.56 24.12 187.28 26.6 185.44 23.56C183.68 20.6 181.68 17.64 179.52 15.48ZM182 64.12V45.64C182 44.44 182.88 43.56 184.08 43.56C185.24 43.56 186.08 44.44 186.08 45.64V46.44H205.52V45.64C205.52 44.44 206.4 43.56 207.6 43.56C208.76 43.56 209.6 44.44 209.6 45.64V63.56C209.6 64.72 208.76 65.56 207.6 65.56C206.4 65.56 205.52 64.72 205.52 63.56V60.52H186.08V64.12C186.08 65.32 185.24 66.2 184.08 66.2C182.88 66.2 182 65.32 182 64.12ZM186.08 58.44H205.52V48.52H186.08V58.44ZM188.64 1.4C188.2 1.08 188.4 0.119998 189.2 0.279996C192.8 1.08 198 2.8 200.08 6.12C201.8 8.88 198.72 11.36 196.56 8.92C193.68 5.64 191.92 3.8 188.64 1.4ZM205.12 32.68C205.12 35.16 206.08 36.84 209.04 36.92H220.4V28.12H205.12V32.68ZM244.16 68.44C243.56 68.48 243.36 67.48 244.08 67.32C255.92 64.52 271.56 58 280.12 44.04C279.4 42 278.52 39.96 277.48 37.96C270.24 48.4 257.12 54.4 245.04 55.64C244.4 55.72 244.32 54.76 244.88 54.6C256.48 51.36 268.12 44.56 275.44 34.24C274.32 32.36 273.12 30.56 271.88 28.8C265.52 36.68 256.56 41.04 245.92 42.36C245.28 42.44 245.04 41.4 245.68 41.24C255.52 38.24 264.88 32.48 270.16 24.08H254.4C253.76 24.08 253.32 23.6 253.32 23C253.32 22.36 253.76 21.92 254.4 21.92H294.12C295.68 21.92 296.68 21.32 297.68 21.32C298.72 21.32 299.44 22 299.44 23C299.44 24 298.72 24.72 297.68 24.72C296.68 24.72 295.68 24.08 294.2 24.08H275.12C274.64 24.92 274.12 25.72 273.6 26.48C276.24 29.56 278.6 32.96 280.56 36.48L280.64 36.6C288.4 50.6 299.12 57.64 309.12 62.44C311.84 63.8 310.12 67.96 307.28 66.64C297.72 62.12 290.88 56.28 285.12 47.2C287.72 56.2 287.08 64.8 281.28 69.96C277.2 73.64 270.56 73.24 266.48 71.08C265.76 70.68 265.92 69.8 266.8 69.88C271.32 70.24 275.72 69.64 278.32 66.6C282.4 61.8 283.04 55.6 281.6 49.12C273.04 61.8 256.92 67.72 244.16 68.44ZM246 24.68V10.28C246 9.12 246.84 8.28 248 8.28C249.2 8.28 250.08 9.12 250.08 10.28V11.48H301.84V10.36C301.84 9.16 302.68 8.28 303.84 8.28C305.04 8.28 305.92 9.16 305.92 10.36V25C305.92 26.12 305.04 26.92 303.84 26.92C302.68 26.92 301.84 26.12 301.84 25V13.56H250.08V24.68C250.08 25.8 249.2 26.6 248 26.6C246.84 26.6 246 25.8 246 24.68ZM268.72 1.56C268.12 1.2 268.48 0.239999 269.12 0.359995C273.96 1.12 279.04 3.08 281.44 6.44C283.2 9 280.08 11.48 278 9.4C274.4 5.56 271.6 3.31999 268.72 1.56ZM286.4 41.28C291.4 38.16 294.56 34.68 297.6 30.36C299.2 28.2 302.64 30.04 301.28 32.68C298.96 37 293.28 40.96 286.8 42.48C286.08 42.64 285.76 41.68 286.4 41.28Z" fill="#333333"/>
</svg>
