<svg width="47" height="48" viewBox="0 0 47 48" fill="none" xmlns="http://www.w3.org/2000/svg">
<path d="M44.9688 41.1562C46.2578 42.5312 46.2578 44.6797 44.9688 46.0547C43.5938 47.3438 41.4453 47.3438 40.0703 46.0547L29.8438 35.7422C26.3203 38.0625 22.0234 39.2656 17.3828 38.6641C9.47656 37.5469 3.11719 31.1016 2.08594 23.2812C0.625 11.5938 10.5078 1.71094 22.1953 3.17188C30.0156 4.20312 36.4609 10.5625 37.5781 18.4688C38.1797 23.1094 36.9766 27.4062 34.6562 30.8438L44.9688 41.1562ZM8.78906 20.875C8.78906 26.9766 13.6875 31.875 19.7891 31.875C25.8047 31.875 30.7891 26.9766 30.7891 20.875C30.7891 14.8594 25.8047 9.875 19.7891 9.875C13.6875 9.875 8.78906 14.8594 8.78906 20.875Z" fill="#FCFF6F"/>
<path d="M41.7656 41.4844C42 41.7188 42 42.1094 41.6875 42.3438C41.6094 42.5 41.375 42.5 41.2969 42.5C41.1406 42.5 40.9844 42.5 40.8281 42.3438L29.1875 30.7031C26.2969 33.3594 22.3906 35 18.1719 35C9.26562 35 2 27.7344 2 18.75C2 9.84375 9.1875 2.5 18.1719 2.5C27.0781 2.5 34.4219 9.84375 34.4219 18.75C34.4219 23.0469 32.7812 26.9531 30.125 29.8438L41.7656 41.4844ZM18.1719 33.75C26.4531 33.75 33.1719 27.0312 33.1719 18.75C33.1719 10.5469 26.375 3.75 18.1719 3.75C9.89062 3.75 3.17188 10.5469 3.17188 18.75C3.17188 27.0312 9.89062 33.75 18.1719 33.75Z" fill="#333333"/>
</svg>
