<svg width="327" height="145" viewBox="0 0 327 145" fill="none" xmlns="http://www.w3.org/2000/svg">
<path d="M70.5 48.5C70.188 48.764 69.66 48.356 69.948 47.924C74.844 41.228 77.46 33.98 79.02 26.804H71.676C71.316 26.804 71.052 26.516 71.052 26.132C71.052 25.772 71.316 25.508 71.676 25.508H79.26V15.764C79.26 14.996 79.788 14.468 80.556 14.468C81.324 14.468 81.852 14.996 81.852 15.764V25.508H86.748C87.66 25.508 88.236 25.172 88.812 25.172C89.412 25.172 89.82 25.58 89.82 26.132C89.82 26.732 89.412 27.14 88.812 27.14C88.236 27.14 87.66 26.804 86.844 26.804H81.852V56.708C81.852 57.476 81.324 58.004 80.556 58.004C79.788 58.004 79.26 57.476 79.26 56.708V35.444C77.46 40.292 74.7 44.828 70.5 48.5ZM83.244 31.892C83.004 31.604 83.316 31.124 83.748 31.364C86.172 32.684 88.716 35.3 89.34 37.844C89.772 39.716 87.468 40.388 86.844 38.66C85.884 36.116 84.732 33.812 83.244 31.892ZM91.212 56.756V18.02C91.212 17.252 91.74 16.724 92.508 16.724C93.276 16.724 93.804 17.252 93.804 18.02V18.548H107.052V18.02C107.052 17.252 107.58 16.724 108.348 16.724C109.116 16.724 109.644 17.252 109.644 18.02V56.372C109.644 57.14 109.116 57.668 108.348 57.668C107.58 57.668 107.052 57.14 107.052 56.372V53.156H93.804V56.756C93.804 57.524 93.276 58.052 92.508 58.052C91.74 58.052 91.212 57.524 91.212 56.756ZM93.804 51.908H107.052V41.348H93.804V51.908ZM93.804 40.1H107.052V30.596H93.804V40.1ZM93.804 29.348H107.052V19.796H93.804V29.348ZM159.708 56.18C153.036 56.948 145.116 57.14 139.068 55.892C134.076 54.884 130.38 52.964 127.74 48.26C127.5 47.852 128.028 47.372 128.412 47.78C131.82 51.38 135.18 52.868 139.644 53.588C145.452 54.5 152.7 54.116 159.468 53.444C161.484 53.252 161.58 55.94 159.708 56.18ZM118.476 37.172C118.476 36.812 118.74 36.548 119.1 36.548H126.756L126.78 35.54C126.78 33.812 129.276 33.812 129.276 35.588C129.276 44.612 126.252 52.628 119.148 57.62C118.74 57.908 118.332 57.332 118.62 56.996C123.492 51.692 126.228 44.996 126.708 37.796H119.1C118.74 37.796 118.476 37.532 118.476 37.172ZM119.772 24.548C119.46 24.308 119.724 23.78 120.108 23.9C123.18 24.86 126.348 26.564 127.98 29.54C128.844 31.172 126.876 32.468 125.82 30.98C123.804 28.1 122.412 26.588 119.772 24.548ZM121.788 16.004C121.5 15.764 121.692 15.236 122.076 15.332C125.196 16.1 128.46 17.924 130.092 20.9C130.956 22.532 128.988 23.828 127.932 22.34C125.916 19.46 124.428 18.02 121.788 16.004ZM132.924 49.796V34.532C132.924 33.812 133.428 33.284 134.124 33.284C134.844 33.284 135.372 33.788 135.372 34.484V35.108H144.108V29.828H137.58V30.644C137.58 31.316 137.076 31.796 136.38 31.796C135.732 31.796 135.276 31.316 135.276 30.644V17.204C135.276 16.532 135.756 16.052 136.428 16.052C137.1 16.052 137.58 16.532 137.58 17.204V17.876H153.084V17.156C153.084 16.484 153.588 16.004 154.284 16.004C154.956 16.004 155.436 16.508 155.436 17.204V30.644C155.436 31.34 154.932 31.844 154.236 31.844C153.564 31.844 153.084 31.34 153.084 30.644V29.828H146.556V35.108H155.292V34.532C155.292 33.812 155.82 33.284 156.54 33.284C157.236 33.284 157.74 33.812 157.74 34.532V45.14C157.74 49.172 155.1 51.524 151.068 50.612C150.684 50.516 150.684 49.988 151.068 49.94C154.476 49.412 155.292 47.876 155.292 44.564V36.356H146.556V42.452C147.42 42.26 148.26 42.044 149.076 41.78C149.436 41.66 149.724 42.188 149.388 42.452C146.316 44.876 141.612 45.812 138.204 45.764C136.62 45.74 136.62 43.46 138.108 43.364C140.004 43.244 142.068 43.124 144.108 42.86V36.356H135.372V49.796C135.372 50.492 134.868 50.996 134.172 50.996C133.452 50.996 132.924 50.492 132.924 49.796ZM137.58 28.58H144.108V24.452H137.58V28.58ZM137.58 23.204H144.108V19.124H137.58V23.204ZM146.556 28.58H153.084V24.452H146.556V28.58ZM146.556 23.204H153.084V19.124H146.556V23.204ZM148.74 38.876C148.548 38.588 148.884 38.204 149.22 38.42C150.972 39.644 153.3 41.972 153.78 44.372C154.116 46.028 152.004 46.412 151.452 44.876C150.66 42.644 150.012 40.964 148.74 38.876ZM166.716 57.86C166.38 58.148 165.852 57.74 166.188 57.308C171.972 49.796 172.596 40.028 172.836 25.868H167.508C167.124 25.868 166.86 25.58 166.86 25.22C166.86 24.86 167.124 24.572 167.508 24.572H184.596C185.532 24.572 186.132 24.188 186.708 24.188C187.332 24.188 187.74 24.596 187.74 25.22C187.74 25.82 187.332 26.252 186.708 26.252C186.132 26.252 185.532 25.868 184.644 25.868H175.332C175.14 40.772 174.324 51.38 166.716 57.86ZM172.044 15.524C171.756 15.26 171.948 14.756 172.38 14.852C174.78 15.428 178.668 17.972 180.324 21.188C181.212 22.892 179.148 24.14 178.14 22.628C176.124 19.556 173.796 17.132 172.044 15.524ZM174.204 56.324C173.772 56.228 173.772 55.532 174.3 55.532C179.7 55.628 181.524 53.276 181.692 47.9L182.124 34.1H176.652C176.292 34.1 176.028 33.836 176.028 33.476C176.028 33.092 176.292 32.804 176.652 32.804H182.148L182.196 31.388C182.244 29.732 184.764 29.78 184.716 31.436L184.164 49.076C183.972 55.148 179.892 58.076 174.204 56.324ZM185.508 35.612C190.548 29.804 193.596 22.988 195.42 15.668C195.828 14.036 198.324 14.564 197.916 16.292C196.236 23.588 192.54 31.196 186.012 36.26C185.7 36.5 185.172 35.996 185.508 35.612ZM189.276 44.732C188.844 44.468 189.132 43.868 189.588 44.012C195.828 45.932 201.636 50.252 204.996 54.62C206.316 56.3 204.252 58.076 202.884 56.444C199.212 52.076 194.004 47.66 189.276 44.732ZM192.444 34.58C192.06 34.316 192.348 33.788 192.732 33.884C196.548 34.82 200.94 37.604 202.812 40.484C203.892 42.116 201.924 43.628 200.676 42.14C198.036 38.996 195.372 36.428 192.444 34.58ZM197.34 20.948C197.196 20.516 197.82 20.252 198.036 20.636C200.724 25.34 204.348 29.636 208.332 33.044C210.06 34.484 208.284 36.644 206.796 35.492C201.996 31.748 199.068 26.324 197.34 20.948ZM234.372 56.564C229.476 56.372 226.524 54.284 226.524 48.932V24.572C226.524 23.828 227.052 23.3 227.796 23.3C228.612 23.3 229.164 23.828 229.164 24.572V48.356C229.164 52.892 230.7 53.78 235.212 53.996C237.228 54.092 239.244 54.092 241.26 53.996C246.804 53.732 247.98 49.892 248.58 44.66C248.628 44.228 249.324 44.228 249.396 44.66C250.572 52.46 247.356 56.372 241.692 56.564C239.244 56.66 236.82 56.66 234.372 56.564ZM214.572 46.484C218.964 41.324 220.908 36.308 222.06 31.076C222.156 30.644 222.828 30.692 222.828 31.124C222.828 37.748 221.34 43.604 216.468 48.284C215.004 49.7 213.396 47.852 214.572 46.484ZM227.964 16.82C227.556 16.628 227.628 15.98 228.156 16.052C233.532 16.82 239.268 19.556 242.004 22.388C243.588 24.02 241.62 25.94 240.156 24.548C236.1 20.732 231.516 18.356 227.964 16.82ZM245.1 31.124C244.788 30.788 245.148 30.332 245.532 30.548C251.052 33.572 255.204 38.996 256.62 45.38C257.052 47.372 254.484 48.068 253.884 46.052C252.012 39.764 249.036 35.204 245.1 31.124Z" fill="#333333"/>
<path d="M99.228 129.476C98.7 129.428 98.748 128.708 99.18 128.66C105.324 127.988 106.236 125.108 106.236 119.78V91.1H76.908V128.948C76.908 129.668 76.284 130.244 75.612 130.244C74.892 130.244 74.316 129.668 74.316 128.948V89.252C74.316 88.508 74.868 87.956 75.612 87.956C76.356 87.956 76.908 88.508 76.908 89.252V89.804H106.236V89.3C106.236 88.532 106.788 87.956 107.532 87.956C108.276 87.956 108.828 88.532 108.828 89.3V120.644C108.828 126.644 106.332 130.388 99.228 129.476ZM79.788 98.276C79.788 97.916 80.052 97.628 80.436 97.628H100.5C101.436 97.628 102.012 97.292 102.612 97.292C103.188 97.292 103.644 97.724 103.644 98.276C103.644 98.852 103.188 99.308 102.612 99.308C102.012 99.308 101.436 98.9 100.548 98.9H80.436C80.052 98.9 79.788 98.636 79.788 98.276ZM83.268 120.308V104.972C83.268 104.252 83.772 103.748 84.492 103.748C85.236 103.748 85.764 104.252 85.764 104.972V105.86H96.9V104.972C96.9 104.252 97.404 103.748 98.124 103.748C98.868 103.748 99.396 104.252 99.396 104.972V119.732C99.396 120.476 98.868 121.004 98.124 121.004C97.404 121.004 96.9 120.476 96.9 119.732V117.428H85.764V120.308C85.764 121.052 85.236 121.58 84.492 121.58C83.772 121.58 83.268 121.052 83.268 120.308ZM85.764 116.132H96.9V107.156H85.764V116.132ZM118.908 111.476C118.524 111.62 118.212 111.092 118.62 110.828C124.092 107.348 128.748 103.004 131.868 97.412C132.78 95.78 134.988 96.956 134.22 98.516C131.244 104.492 125.82 108.956 118.908 111.476ZM119.1 100.172C124.116 96.692 127.524 93.14 130.356 87.524C131.052 86.132 133.5 86.924 132.708 88.724C130.428 94.052 125.148 99.044 119.388 100.844C119.004 100.964 118.692 100.484 119.1 100.172ZM126.348 128.66V110.276C126.348 109.46 126.924 108.884 127.692 108.884C128.46 108.884 129.036 109.46 129.036 110.276V128.66C129.036 129.38 128.484 129.956 127.692 129.956C126.9 129.956 126.348 129.38 126.348 128.66ZM134.604 104.276C134.604 103.868 134.916 103.556 135.324 103.556H157.356C158.364 103.556 159.036 103.124 159.708 103.124C160.38 103.124 160.86 103.604 160.86 104.276C160.86 104.948 160.38 105.428 159.708 105.428C159.036 105.428 158.364 104.996 157.404 104.996H153.516V121.892C153.516 127.748 150.156 130.82 144.636 129.668C144.06 129.572 144.18 128.876 144.636 128.804C149.628 128.228 150.828 126.164 150.828 120.884V104.996H135.324C134.916 104.996 134.604 104.684 134.604 104.276ZM137.916 90.74C137.916 90.332 138.228 90.02 138.636 90.02H154.812C155.82 90.02 156.492 89.588 157.164 89.588C157.836 89.588 158.316 90.068 158.316 90.74C158.316 91.412 157.836 91.892 157.164 91.892C156.492 91.892 155.82 91.46 154.86 91.46H138.636C138.228 91.46 137.916 91.148 137.916 90.74ZM166.716 129.86C166.38 130.148 165.852 129.74 166.188 129.308C171.972 121.796 172.596 112.028 172.836 97.868H167.508C167.124 97.868 166.86 97.58 166.86 97.22C166.86 96.86 167.124 96.572 167.508 96.572H184.596C185.532 96.572 186.132 96.188 186.708 96.188C187.332 96.188 187.74 96.596 187.74 97.22C187.74 97.82 187.332 98.252 186.708 98.252C186.132 98.252 185.532 97.868 184.644 97.868H175.332C175.14 112.772 174.324 123.38 166.716 129.86ZM172.044 87.524C171.756 87.26 171.948 86.756 172.38 86.852C174.78 87.428 178.668 89.972 180.324 93.188C181.212 94.892 179.148 96.14 178.14 94.628C176.124 91.556 173.796 89.132 172.044 87.524ZM174.204 128.324C173.772 128.228 173.772 127.532 174.3 127.532C179.7 127.628 181.524 125.276 181.692 119.9L182.124 106.1H176.652C176.292 106.1 176.028 105.836 176.028 105.476C176.028 105.092 176.292 104.804 176.652 104.804H182.148L182.196 103.388C182.244 101.732 184.764 101.78 184.716 103.436L184.164 121.076C183.972 127.148 179.892 130.076 174.204 128.324ZM185.508 107.612C190.548 101.804 193.596 94.988 195.42 87.668C195.828 86.036 198.324 86.564 197.916 88.292C196.236 95.588 192.54 103.196 186.012 108.26C185.7 108.5 185.172 107.996 185.508 107.612ZM189.276 116.732C188.844 116.468 189.132 115.868 189.588 116.012C195.828 117.932 201.636 122.252 204.996 126.62C206.316 128.3 204.252 130.076 202.884 128.444C199.212 124.076 194.004 119.66 189.276 116.732ZM192.444 106.58C192.06 106.316 192.348 105.788 192.732 105.884C196.548 106.82 200.94 109.604 202.812 112.484C203.892 114.116 201.924 115.628 200.676 114.14C198.036 110.996 195.372 108.428 192.444 106.58ZM197.34 92.948C197.196 92.516 197.82 92.252 198.036 92.636C200.724 97.34 204.348 101.636 208.332 105.044C210.06 106.484 208.284 108.644 206.796 107.492C201.996 103.748 199.068 98.324 197.34 92.948ZM255.18 128.18C248.796 128.852 239.868 128.996 233.82 127.22C228.348 125.636 223.836 123.14 221.004 118.724C220.74 118.316 221.244 117.86 221.628 118.244C222.204 118.796 222.78 119.3 223.356 119.756V103.988H216.012C215.652 103.988 215.388 103.724 215.388 103.364C215.388 103.004 215.7 102.74 216.108 102.74H222.876V95.732H217.068C216.708 95.732 216.444 95.468 216.444 95.108C216.444 94.748 216.756 94.484 217.164 94.484H222.876V87.908C222.876 87.212 223.38 86.708 224.076 86.708C224.796 86.708 225.324 87.212 225.324 87.908V94.484H228.588C229.452 94.484 230.028 94.1 230.604 94.1C231.18 94.1 231.612 94.532 231.612 95.108C231.612 95.684 231.18 96.116 230.604 96.116C230.028 96.116 229.452 95.732 228.636 95.732H225.324V102.74H229.26C230.124 102.74 230.7 102.356 231.276 102.356C231.852 102.356 232.284 102.788 232.284 103.364C232.284 103.94 231.852 104.372 231.276 104.372C230.7 104.372 230.124 103.988 229.308 103.988H225.804V110.852H228.684C229.548 110.852 230.124 110.468 230.7 110.468C231.276 110.468 231.708 110.9 231.708 111.476C231.708 112.052 231.276 112.484 230.7 112.484C230.124 112.484 229.548 112.1 228.732 112.1H225.804V121.508C228.228 122.996 230.94 124.028 234.396 124.772C240.204 126.02 248.46 125.876 254.94 125.3C256.956 125.108 257.052 127.988 255.18 128.18ZM213.948 129.38C217.404 123.812 218.316 116.276 218.556 108.116C218.604 106.388 221.1 106.388 221.1 108.164C221.1 117.284 219.372 124.916 214.572 129.908C214.26 130.244 213.66 129.836 213.948 129.38ZM229.596 89.876C229.596 89.54 229.836 89.3 230.172 89.3H243.612C244.428 89.3 244.956 88.916 245.532 88.916C246.06 88.916 246.444 89.324 246.444 89.876C246.444 90.428 246.06 90.836 245.532 90.836C244.956 90.836 244.428 90.452 243.66 90.452H242.844V122.66C242.844 123.332 242.34 123.812 241.644 123.812C240.972 123.812 240.492 123.332 240.492 122.66V107.54H235.308V115.436C236.556 115.148 237.924 114.74 239.388 114.164C239.748 114.02 239.988 114.5 239.7 114.788C238.212 116.276 234.396 118.628 230.604 118.676C229.068 118.628 228.924 116.42 230.46 116.228C231.204 116.156 232.044 116.06 232.956 115.892V90.452H230.172C229.836 90.452 229.596 90.212 229.596 89.876ZM235.308 106.292H240.492V99.236H235.308V106.292ZM235.308 97.988H240.492V90.452H235.308V97.988ZM243.588 121.7C245.94 118.412 247.74 114.308 249.084 109.772C247.596 105.404 245.964 101.444 244.188 98.18C243.948 97.748 244.524 97.316 244.86 97.748C246.636 100.052 248.436 102.86 250.044 106.1C250.908 102.356 251.508 98.396 251.892 94.388H244.524C244.164 94.388 243.9 94.124 243.9 93.764C243.9 93.404 244.164 93.14 244.524 93.14H252.012L252.06 92.468C252.204 90.692 254.604 91.028 254.508 92.612C254.124 98.252 253.14 104.06 251.46 109.244C252.684 112.172 253.716 115.412 254.412 118.868C254.748 120.596 252.396 121.172 251.964 119.444C251.388 117.212 250.764 115.028 250.116 112.916C248.58 116.588 246.612 119.804 244.188 122.228C243.804 122.612 243.276 122.132 243.588 121.7Z" fill="#333333"/>
</svg>
