<svg width="80" height="30" viewBox="0 0 80 30" fill="none" xmlns="http://www.w3.org/2000/svg">
<path d="M0 30C0.788339 29.1936 1.48973 28.3641 2.10417 27.5115C2.70702 26.6705 3.21712 25.7834 3.63448 24.8502C4.05183 23.9286 4.37644 22.9493 4.60831 21.9124L7.51241 8.26037C7.86021 6.65899 8.16743 5.22466 8.43407 3.95737C8.71231 2.67857 8.99634 1.35945 9.28618 0H15.0422C14.7524 1.34793 14.4683 2.66129 14.1901 3.94009C13.9235 5.20737 13.6162 6.65323 13.2684 8.27765L12.2077 13.2373C11.8715 14.8157 11.5411 16.3594 11.2164 17.8687C10.9034 19.3779 10.5904 20.841 10.2774 22.2581C10.0687 23.2143 9.80207 24.0841 9.47746 24.8675C9.15285 25.6509 8.78767 26.3537 8.3819 26.9758C7.97614 27.5979 7.5298 28.1567 7.04289 28.6521C6.55597 29.1475 6.05746 29.5968 5.54736 30H0Z" fill="#333333"/>
<path d="M25.1574 25.1094C23.4996 25.1094 22.0852 24.8329 20.9143 24.28C19.7434 23.7154 18.8217 22.9608 18.1493 22.0161C17.4769 21.0714 17.0363 20 16.8277 18.8018C16.6306 17.5922 16.6596 16.3537 16.9146 15.0864C17.2856 13.3698 17.9174 11.9009 18.8101 10.6797C19.7144 9.45853 20.8331 8.53111 22.1663 7.89747C23.5112 7.2523 25.0299 6.92972 26.7225 6.92972C28.3339 6.92972 29.7193 7.20622 30.8787 7.75922C32.038 8.30069 32.9654 9.04378 33.661 9.98848C34.3682 10.9332 34.8261 12.0046 35.0348 13.2028C35.2551 14.3894 35.2261 15.6336 34.9479 16.9355C34.5885 18.5945 33.9683 20.0403 33.0872 21.273C32.2061 22.4942 31.0989 23.4389 29.7657 24.1071C28.4325 24.7753 26.8964 25.1094 25.1574 25.1094ZM25.3139 20.8929C26.1022 20.8929 26.792 20.6912 27.3833 20.288C27.9861 19.8848 28.4846 19.3491 28.8788 18.6809C29.273 18.0127 29.5512 17.2638 29.7135 16.4343C29.9222 15.5012 29.9454 14.6313 29.7831 13.8249C29.6324 13.0184 29.2962 12.3733 28.7745 11.8894C28.2528 11.394 27.5514 11.1463 26.6703 11.1463C25.882 11.1463 25.1806 11.3364 24.5661 11.7166C23.9517 12.0968 23.4358 12.621 23.0184 13.2892C22.6127 13.9574 22.3229 14.7235 22.149 15.5876C21.9519 16.5207 21.9345 17.3906 22.0968 18.197C22.2591 19.0035 22.6069 19.6544 23.1402 20.1498C23.6735 20.6452 24.398 20.8929 25.3139 20.8929Z" fill="#333333"/>
<path d="M40.4977 6.62627H56.9026V24.6521H54.4745V23.7396H42.9462V24.6521H40.4977V6.62627ZM54.4745 22.523V7.82258H42.9462V22.523H54.4745ZM43.3951 15.8521C44.803 15.8926 46.1904 15.9129 47.6187 15.8926V15.041H44.0684V10.8235H47.6187V10.1341H43.3951V9.03917H47.6187V8.12673H49.8428V9.03917H53.9848V10.1341H49.8428V10.8235H53.4339V15.041H52.23C53.0462 15.4871 53.8012 16.0548 54.3317 16.582L53.2094 17.6972C52.9238 17.3323 52.6177 16.947 52.2913 16.582C49.6387 17.0889 46.1496 17.3728 43.6603 17.4336L43.3951 15.8521ZM45.966 11.7968V12.4659H47.7003V11.7968H45.966ZM49.7816 11.7968V12.4659H51.5159V11.7968H49.7816ZM45.966 14.0272H47.7003V13.3378H45.966V14.0272ZM49.7816 13.3378V14.0272H51.5159V13.3378H49.7816ZM49.8428 15.041V15.8521L51.5771 15.7912C51.4139 15.629 51.271 15.4668 51.1282 15.3249L51.3731 15.041H49.8428ZM44.4765 19.6843L44.8642 19.1166H43.3543V17.9608H49.9448V17.0687H52.1892V17.9608H54.0664V19.1166H52.1892V20.5968C52.1892 22.2392 50.2304 22.6447 47.884 21.6106L48.0472 20.6982C49.7203 20.8806 49.9448 20.7184 49.9448 20.2115V19.1166H45.2927C46.0884 19.4207 47.027 19.8871 47.7819 20.4751L46.5781 21.8539C45.864 21.0226 45.1294 20.2724 44.4765 19.6843Z" fill="#333333"/>
<path d="M71.7159 21.9147C75.3275 21.935 77.7759 21.712 80 21.4687L79.245 24.1046C76.5721 24.2465 74.4297 24.2871 71.8588 24.206C67.6147 24.0843 65.1866 23.1516 63.84 20.4954C63.5135 22.1783 63.0034 23.5774 62.228 24.7129L61.2895 24.2465C62.0648 22.0567 62.2076 19.2585 62.126 15.1018L64.2072 15.1829C64.2276 16.3793 64.1868 17.4945 64.1052 18.5488C64.3297 18.9949 64.5745 19.3802 64.8398 19.7046V13.8244H61.7996V12.6281H64.4725V10.2963H62.1668V9.1H64.4725V5.93687H66.8802V9.1H68.9206V10.2963H66.8802V12.6281H69.1042V13.8244H67.1454V15.9535H68.9614V17.1498H67.1454V21.4281C68.3901 21.8945 69.8796 21.9147 71.7159 21.9147ZM69.3695 18.4069V8.14701H68.186V6.95069H75.8784V8.14701H74.4909V9.14055H76.7966L77.2863 8.69447L79.2246 9.26221C79.1022 11.5535 78.7553 14.0272 78.0004 16.2576C78.6533 17.6567 79.2246 19.0355 79.5919 20.1304L77.5515 20.9618C77.4087 20.2926 77.2046 19.5221 76.9394 18.7111C76.4293 19.6438 75.8172 20.4954 75.0622 21.2051L74.4909 20.6779V21.4484H72.4505V18.9341C71.0834 19.7249 69.6347 20.394 68.5329 20.6982L67.8596 18.6097C68.3493 18.5691 68.839 18.488 69.3695 18.4069ZM71.3487 8.14701V10.4382H72.4505V8.14701H71.3487ZM77.0006 10.3166H74.4909V20.3129C75.205 19.1571 75.756 17.7581 76.164 16.2576C75.6335 14.7166 75.0418 13.1147 74.4909 11.7157L75.3071 11.3304C75.7763 12.0401 76.2456 12.8512 76.7149 13.723C76.8986 12.5673 76.9802 11.4115 77.0006 10.3166ZM71.3487 11.594V13.9664H72.4505V11.594H71.3487ZM72.4505 15.1221H71.3487V17.9811C71.7159 17.9 72.0832 17.7986 72.4505 17.677V15.1221Z" fill="#333333"/>
</svg>
