<svg width="200" height="76" viewBox="0 0 200 76" fill="none" xmlns="http://www.w3.org/2000/svg">
<path d="M0 76C1.97085 73.957 3.72432 71.8556 5.26043 69.6958C6.76755 67.5653 8.0428 65.318 9.08619 62.9539C10.1296 60.619 10.9411 58.1382 11.5208 55.5115L18.781 20.9263C19.6505 16.8694 20.4186 13.2358 21.0852 10.0253C21.7808 6.78572 22.4909 3.44393 23.2154 0H37.6055C36.881 3.41475 36.1709 6.74194 35.4753 9.98157C34.8087 13.192 34.0406 16.8548 33.1711 20.97L30.5192 33.5346C29.6787 37.533 28.8526 41.4439 28.0411 45.2673C27.2586 49.0906 26.476 52.7972 25.6935 56.3871C25.1718 58.8095 24.5052 61.0131 23.6937 62.9977C22.8821 64.9823 21.9692 66.7627 20.9548 68.3387C19.9404 69.9147 18.8245 71.3303 17.6072 72.5852C16.3899 73.8402 15.1437 74.9785 13.8684 76H0Z" fill="url(#paint0_linear_10690_3075)"/>
<path d="M62.8935 63.6106C58.7489 63.6106 55.213 62.9101 52.2857 61.5092C49.3584 60.0791 47.0542 58.1674 45.3732 55.7742C43.6922 53.3809 42.5909 50.6667 42.0692 47.6313C41.5764 44.5668 41.6489 41.4293 42.2865 38.2189C43.214 33.8702 44.7936 30.149 47.0253 27.0553C49.2859 23.9616 52.0828 21.6121 55.4159 20.0069C58.7779 18.3725 62.5747 17.5553 66.8062 17.5553C70.8349 17.5553 74.2983 18.2558 77.1966 19.6567C80.0949 21.0284 82.4136 22.9109 84.1526 25.3041C85.9205 27.6974 87.0654 30.4117 87.5871 33.447C88.1377 36.4531 88.0653 39.6052 87.3697 42.9032C86.4712 47.106 84.9206 50.7688 82.7179 53.8917C80.5152 56.9854 77.7473 59.3786 74.4143 61.0714C71.0812 62.7642 67.241 63.6106 62.8935 63.6106ZM63.2848 52.9286C65.2556 52.9286 66.9801 52.4178 68.4582 51.3963C69.9654 50.3748 71.2116 49.0177 72.1971 47.3249C73.1825 45.6321 73.8781 43.735 74.2838 41.6336C74.8055 39.2696 74.8635 37.066 74.4577 35.023C74.081 32.98 73.2404 31.3456 71.9362 30.1198C70.632 28.8648 68.8785 28.2373 66.6758 28.2373C64.7049 28.2373 62.9515 28.7189 61.4154 29.682C59.8792 30.6452 58.5895 31.9731 57.5461 33.6659C56.5317 35.3587 55.8071 37.2995 55.3724 39.4885C54.8797 41.8525 54.8362 44.0561 55.242 46.0991C55.6477 48.1421 56.5172 49.7911 57.8504 51.0461C59.1837 52.3011 60.9951 52.9286 63.2848 52.9286Z" fill="url(#paint1_linear_10690_3075)"/>
<path d="M101.244 16.7865H142.256V62.4519H136.186V60.1404H107.365V62.4519H101.244V16.7865ZM136.186 57.0584V19.8172H107.365V57.0584H136.186ZM108.488 40.1586C112.007 40.2613 115.476 40.3127 119.047 40.2613V38.1039H110.171V27.4195H119.047V25.6731H108.488V22.8992H119.047V20.5877H124.607V22.8992H134.962V25.6731H124.607V27.4195H133.585V38.1039H130.575C132.616 39.234 134.503 40.6723 135.829 42.0078L133.024 44.833C132.309 43.9084 131.544 42.9324 130.728 42.0078C124.097 43.292 115.374 44.0111 109.151 44.1652L108.488 40.1586ZM114.915 29.8852V31.5803H119.251V29.8852H114.915ZM124.454 29.8852V31.5803H128.79V29.8852H124.454ZM114.915 35.5355H119.251V33.7891H114.915V35.5355ZM124.454 33.7891V35.5355H128.79V33.7891H124.454ZM124.607 38.1039V40.1586L128.943 40.0045C128.535 39.5935 128.178 39.1826 127.821 38.823L128.433 38.1039H124.607ZM111.191 49.867L112.16 48.4287H108.386V45.5008H124.862V43.2406H130.473V45.5008H135.166V48.4287H130.473V52.1785C130.473 56.3392 125.576 57.3666 119.71 54.7469L120.118 52.4353C124.301 52.8976 124.862 52.4867 124.862 51.2025V48.4287H113.232C115.221 49.1992 117.567 50.3806 119.455 51.8703L116.445 55.3633C114.66 53.2572 112.824 51.3566 111.191 49.867Z" fill="url(#paint2_linear_10690_3075)"/>
<path d="M179.29 55.5174C188.319 55.5687 194.44 55.0037 200 54.3873L198.113 61.065C191.43 61.4246 186.074 61.5273 179.647 61.3218C169.037 61.0136 162.967 58.6507 159.6 51.9217C158.784 56.1851 157.508 59.7295 155.57 62.606L153.224 61.4246C155.162 55.8769 155.519 48.7883 155.315 38.258L160.518 38.4635C160.569 41.4941 160.467 44.3193 160.263 46.9904C160.824 48.1205 161.436 49.0965 162.099 49.9183V35.0219H154.499V31.9912H161.181V26.084H155.417V23.0533H161.181V15.0401H167.2V23.0533H172.301V26.084H167.2V31.9912H172.761V35.0219H167.864V40.4154H172.403V43.4461H167.864V54.2845C170.975 55.466 174.699 55.5174 179.29 55.5174ZM173.424 46.6308V20.6391H170.465V17.6084H189.696V20.6391H186.227V23.1561H191.991L193.216 22.026L198.062 23.4643C197.756 29.2688 196.888 35.5355 195.001 41.1859C196.633 44.7303 198.062 48.2232 198.98 50.997L193.879 53.1031C193.522 51.408 193.012 49.456 192.348 47.4013C191.073 49.7642 189.543 51.9217 187.656 53.7195L186.227 52.384V54.3359H181.126V47.9664C177.709 49.9697 174.087 51.6648 171.332 52.4353L169.649 47.1445C170.873 47.0418 172.097 46.8363 173.424 46.6308ZM178.372 20.6391V26.4436H181.126V20.6391H178.372ZM192.502 26.1354H186.227V51.4594C188.013 48.5314 189.39 44.9871 190.41 41.1859C189.084 37.282 187.605 33.224 186.227 29.6797L188.268 28.7037C189.441 30.5016 190.614 32.5562 191.787 34.765C192.246 31.8371 192.451 28.9092 192.502 26.1354ZM178.372 29.3715V35.3814H181.126V29.3715H178.372ZM181.126 38.3094H178.372V45.5521C179.29 45.3467 180.208 45.0898 181.126 44.7816V38.3094Z" fill="url(#paint3_linear_10690_3075)"/>
<defs>
<linearGradient id="paint0_linear_10690_3075" x1="200" y1="38" x2="2.85074e-05" y2="38" gradientUnits="userSpaceOnUse">
<stop stop-color="#CEFF66"/>
<stop offset="1" stop-color="#FCFF6F"/>
</linearGradient>
<linearGradient id="paint1_linear_10690_3075" x1="200" y1="38" x2="2.85074e-05" y2="38" gradientUnits="userSpaceOnUse">
<stop stop-color="#CEFF66"/>
<stop offset="1" stop-color="#FCFF6F"/>
</linearGradient>
<linearGradient id="paint2_linear_10690_3075" x1="200" y1="38" x2="2.85074e-05" y2="38" gradientUnits="userSpaceOnUse">
<stop stop-color="#CEFF66"/>
<stop offset="1" stop-color="#FCFF6F"/>
</linearGradient>
<linearGradient id="paint3_linear_10690_3075" x1="200" y1="38" x2="2.85074e-05" y2="38" gradientUnits="userSpaceOnUse">
<stop stop-color="#CEFF66"/>
<stop offset="1" stop-color="#FCFF6F"/>
</linearGradient>
</defs>
</svg>
