<svg width="20" height="158" viewBox="0 0 20 158" fill="none" xmlns="http://www.w3.org/2000/svg">
<path d="M9.28 0.399999V33.84C7.44 31.4 4.56 28.28 1.72 26.12L0.879998 27.32C4.4 30 7.8 33.88 10 37.4C12.2 33.88 15.6 30 19.12 27.32L18.28 26.12C15.44 28.28 12.56 31.4 10.72 33.84V0.399999H9.28ZM9.28 60.4V93.84C7.44 91.4 4.56 88.28 1.72 86.12L0.879998 87.32C4.4 90 7.8 93.88 10 97.4C12.2 93.88 15.6 90 19.12 87.32L18.28 86.12C15.44 88.28 12.56 91.4 10.72 93.84V60.4H9.28ZM9.28 120.4V153.84C7.44 151.4 4.56 148.28 1.72 146.12L0.879998 147.32C4.4 150 7.8 153.88 10 157.4C12.2 153.88 15.6 150 19.12 147.32L18.28 146.12C15.44 148.28 12.56 151.4 10.72 153.84V120.4H9.28Z" fill="#D9D9D9"/>
</svg>
