<svg width="20" height="24" viewBox="0 0 20 24" fill="none" xmlns="http://www.w3.org/2000/svg">
<path d="M0 9.46409V9.26882C0 6.53521 1.95312 4.19212 4.64844 3.76255C6.40625 3.45014 8.24219 4.03591 9.53125 5.32461L10 5.75418L10.4297 5.32461C11.7188 4.03591 13.5547 3.45014 15.3125 3.76255C18.0078 4.19212 20 6.53521 20 9.26882V9.46409C20 11.1042 19.2969 12.6664 18.125 13.7597L11.0547 20.3595C10.7812 20.6328 10.3906 20.75 10 20.75C9.57031 20.75 9.17969 20.6328 8.90625 20.3595L1.83594 13.7597C0.664062 12.6664 0 11.1042 0 9.46409Z" fill="#F9564F"/>
</svg>
