<svg width="276" height="38" viewBox="0 0 276 38" fill="none" xmlns="http://www.w3.org/2000/svg">
<path d="M36.28 36.56C31.64 34.8 28.26 32.1 25.8 28.74C22.06 32.24 17.22 34.8 11.68 35.64C11.3 35.7 11.16 35.18 11.58 35.04C17 33.3 21.32 30.52 24.64 26.98C22.4 23.24 21.1 18.8 20.34 13.9L13.8 14.72C13 14.82 12.96 13.72 13.64 13.64L20.18 12.82C19.7 9.34 19.46 5.66 19.36 1.84C19.36 0.439998 21.48 0.479998 21.52 1.84C21.66 5.62 21.9 9.2 22.38 12.56L31.64 11.4C32.44 11.3 32.88 10.92 33.4 10.84C34.56 10.68 34.76 12.4 33.56 12.56C33.04 12.64 32.52 12.4 31.8 12.48L22.56 13.64C23.24 17.9 24.36 21.78 26.18 25.22C28.2 22.7 29.82 19.86 31.04 16.76C31.48 15.56 33.44 16.08 33 17.52C31.86 21.02 29.92 24.34 27.32 27.2C29.5 30.56 32.46 33.46 36.56 35.84C36.98 36.08 36.72 36.72 36.28 36.56ZM0.96 9.88C0.96 9.58 1.18 9.36 1.48 9.36H7.2V1.84C7.2 1.18 7.64 0.719999 8.28 0.719999C8.92 0.719999 9.36 1.18 9.36 1.84V9.36H13.04C13.8 9.36 14.28 9.04 14.76 9.04C15.26 9.04 15.6 9.38 15.6 9.88C15.6 10.34 15.26 10.68 14.76 10.68C14.28 10.68 13.8 10.4 13.08 10.4H9.36V18.96C11.3 18.1 13.12 17.08 14.96 15.8C15.32 15.54 15.72 16.04 15.44 16.32C13.58 18.28 11.62 19.78 9.36 20.94V30.32C9.36 35.04 6.56 37.44 2.2 36.56C1.8 36.48 1.88 35.92 2.2 35.88C6.48 35.4 7.2 33.76 7.2 29.56V21.94C5.68 22.56 4.02 23.06 2.16 23.48C0.72 23.8 0.24 21.8 1.76 21.44C3.74 20.94 5.54 20.42 7.2 19.82V10.4H1.48C1.18 10.4 0.96 10.18 0.96 9.88ZM24.84 3.52C24.62 3.36 24.76 2.94 25.08 3C27.16 3.44 30.64 5.2 31.84 7.52C32.48 8.72 30.92 9.92 29.92 8.64C28.52 6.76 26.32 4.64 24.84 3.52ZM40.44 19.28C40.04 19.52 39.68 19.04 40 18.72C45.2 13.32 47.6 7.56 49.32 1.6C49.72 0.119998 51.8 0.559999 51.48 2.04C50.08 8.36 46.6 15.28 40.44 19.28ZM45.68 35.88V16.44C45.68 15.78 46.12 15.32 46.76 15.32C47.4 15.32 47.84 15.78 47.84 16.44V35.88C47.84 36.56 47.4 37.04 46.76 37.04C46.12 37.04 45.68 36.56 45.68 35.88ZM49.28 23.84C49.28 23.52 49.5 23.28 49.8 23.28H61.12V15.84H51.24C50.94 15.84 50.72 15.6 50.72 15.28C50.72 14.98 50.94 14.76 51.24 14.76H61.12V1.92C61.12 1.26 61.58 0.799998 62.24 0.799998C62.88 0.799998 63.32 1.26 63.32 1.92V14.76H71.32C72.12 14.76 72.6 14.44 73.12 14.44C73.64 14.44 74 14.78 74 15.28C74 15.8 73.64 16.16 73.12 16.16C72.6 16.16 72.12 15.84 71.36 15.84H63.32V23.28H72.96C73.76 23.28 74.24 22.96 74.76 22.96C75.28 22.96 75.64 23.32 75.64 23.84C75.64 24.36 75.28 24.72 74.76 24.72C74.24 24.72 73.76 24.4 73 24.4H63.32V35.96C63.32 36.56 62.88 37 62.24 37C61.58 37 61.12 36.56 61.12 35.96V24.4H49.8C49.5 24.4 49.28 24.16 49.28 23.84ZM52.76 5.24C52.6 5 52.8 4.64 53.08 4.76C55.4 5.92 57.8 8.84 58.56 11.56C58.96 13.08 57 13.72 56.48 12.24C55.52 9.68 54.44 7.32 52.76 5.24ZM65.88 12.52C68 10.08 69.16 7.8 70 5.04C70.44 3.52 72.52 4.08 72.2 5.56C71.6 8.4 69 11.52 66.36 13.04C66 13.24 65.64 12.8 65.88 12.52ZM94.6 36.84C94.24 37 94 36.56 94.28 36.32C101.12 31.04 103.3 21.66 103.74 12.8H98.92C98.6 12.8 98.36 12.56 98.36 12.24C98.36 11.94 98.6 11.72 98.92 11.72H103.8C103.82 10.8 103.84 9.86 103.84 8.96V1.96C103.84 1.36 104.28 0.919999 104.88 0.919999C105.46 0.919999 105.88 1.36 105.88 1.96V9.92L105.86 11.72H111.76C112.52 11.72 113.04 11.36 113.56 11.36C114.06 11.36 114.4 11.72 114.4 12.24C114.4 12.76 114.06 13.12 113.56 13.12C113.04 13.12 112.52 12.8 111.8 12.8H105.82C105.46 21.76 103.22 32.56 94.6 36.84ZM80.28 33.44C82.6 31.28 84.56 27.52 85.4 24.68C85.8 23.24 87.76 23.88 87.4 25.2C86.36 29.02 83.92 32.12 80.6 33.92C80.3 34.08 80.06 33.66 80.28 33.44ZM80.72 8.16C80.72 7.84 80.94 7.6 81.24 7.6H97.28C98.08 7.6 98.6 7.28 99.08 7.28C99.6 7.28 99.96 7.64 99.96 8.16C99.96 8.68 99.6 9.04 99.08 9.04C98.6 9.04 98.08 8.72 97.32 8.72H81.24C80.94 8.72 80.72 8.48 80.72 8.16ZM83.84 21.16V11.8C83.84 11.2 84.28 10.76 84.88 10.76C85.46 10.76 85.88 11.2 85.88 11.8V12.24H95.24V11.8C95.24 11.2 95.68 10.76 96.28 10.76C96.86 10.76 97.28 11.2 97.28 11.8V21.04C97.28 21.62 96.86 22.04 96.28 22.04C95.68 22.04 95.24 21.62 95.24 21.04V20.24H91.72V31.68C91.72 35.68 89.08 37.4 85.76 36.56C85.36 36.48 85.4 35.94 85.72 35.9C88.96 35.38 89.68 34.28 89.68 30.96V20.24H85.88V21.16C85.88 21.74 85.46 22.16 84.88 22.16C84.28 22.16 83.84 21.74 83.84 21.16ZM85.84 1.24C85.64 1.04 85.76 0.639998 86.08 0.719999C88.04 1.16 90.92 2.68 92.16 4.6C93.04 6 91.4 7.36 90.32 5.96C89.04 4.24 87.6 2.72 85.84 1.24ZM85.88 19.2H95.24V13.28H85.88V19.2ZM93.36 24.16C93.16 23.9 93.46 23.54 93.76 23.72C96.32 25.22 97.92 27.24 98.6 29.2C99.08 30.64 97.24 31.36 96.64 30.04C95.76 28 94.96 26.24 93.36 24.16ZM106.4 31.28V16.56C106.4 16 106.88 15.52 107.44 15.52C108 15.52 108.44 16 108.44 16.56V31.28C108.44 33.36 109.24 33.88 111.2 33.92C113.64 33.96 114.6 32.4 115 29.64C115.04 29.36 115.52 29.36 115.56 29.64C116.04 33.28 115.04 35.96 111.2 35.96C108.12 35.96 106.4 34.36 106.4 31.28ZM107.72 3.28C107.54 3.04 107.78 2.74 108.08 2.88C110.24 3.88 112.44 6.36 112.92 8.4C113.24 9.84 111.44 10.36 110.92 9.04C110.04 6.84 109.12 5.08 107.72 3.28ZM120.92 34.72C120.56 34.8 120.4 34.32 120.72 34.12C127.88 30.14 133.36 25.14 136.96 18.62V7.28H122.2C121.88 7.28 121.64 7.04 121.64 6.72C121.64 6.42 121.88 6.2 122.2 6.2H136.96V1.84C136.96 1.2 137.4 0.759999 138 0.759999C138.64 0.759999 139.08 1.2 139.08 1.84V6.2H151.48C152.28 6.2 152.76 5.84 153.28 5.84C153.8 5.84 154.16 6.2 154.16 6.72C154.16 7.24 153.8 7.6 153.28 7.6C152.76 7.6 152.28 7.28 151.52 7.28H139.08V36C139.08 36.6 138.64 37.04 138 37.04C137.4 37.04 136.96 36.6 136.96 36V22.7C133.58 27.62 127.52 32.44 120.92 34.72ZM121.64 22.86C125.34 19.22 127.58 14.62 128.68 10C129 8.66 130.98 9.04 130.78 10.44C129.94 15.78 126.58 20.78 122.04 23.42C121.7 23.62 121.36 23.14 121.64 22.86ZM129.96 15.46C129.76 15.2 130.02 14.84 130.36 14.98C132 15.7 133.96 17 134.8 19.12C135.36 20.6 133.56 21.44 132.84 20.08C131.92 18.28 130.92 16.68 129.96 15.46ZM139.96 21.96C139.74 21.62 140.16 21.28 140.48 21.6C144.4 25.68 149.16 29.6 154.96 32.16C156.36 32.8 155.48 34.92 154.04 34.4C148.56 32.36 143.04 26.88 139.96 21.96ZM140.44 20.02C143 17.36 144.42 14.52 145.52 10.32C145.88 8.84 147.92 9.32 147.64 10.7C146.66 15.5 144.22 18.68 140.82 20.54C140.54 20.7 140.2 20.3 140.44 20.02ZM146.94 15.12C146.68 14.84 146.96 14.48 147.32 14.66C149.3 15.66 152.08 17.8 153 19.94C153.68 21.52 151.74 22.38 151 21.04C149.84 18.96 148.62 16.98 146.94 15.12ZM179.58 36.8C179.28 37.04 178.94 36.6 179.16 36.32C183.28 31.68 185.36 27.44 186.66 19.1C186.96 17.16 187.08 13.36 187.08 9.48V1.92C187.08 1.36 187.5 0.959999 188.08 0.959999C188.64 0.959999 189.04 1.36 189.04 1.92V9.48C189.04 13.36 188.92 17.62 188.56 19.92C187.16 29.12 184.04 33.24 179.58 36.8ZM160.44 10.28C160.44 9.98 160.66 9.76 160.96 9.76H165.32V1.8C165.32 1.22 165.76 0.799998 166.36 0.799998C166.94 0.799998 167.36 1.22 167.36 1.8V9.76H169.28C170.04 9.76 170.52 9.44 171 9.44C171.5 9.44 171.84 9.78 171.84 10.28C171.84 10.74 171.5 11.08 171 11.08C170.52 11.08 170.04 10.8 169.32 10.8H167.36V18.96C168.52 18.38 169.66 17.66 170.96 16.72C171.28 16.48 171.64 16.86 171.36 17.2C170.16 18.64 168.84 19.84 167.36 20.84V31C167.36 35.48 164.94 37.56 161 36.68C160.64 36.6 160.68 36.06 161 36.04C164.52 35.72 165.32 34.36 165.32 30.24V22.04C164.32 22.56 163.22 23 162.04 23.4C160.6 23.84 160.12 21.76 161.36 21.36C162.86 20.84 164.14 20.4 165.32 19.9V10.8H160.96C160.66 10.8 160.44 10.58 160.44 10.28ZM168.96 29.4C171.6 25.72 173.92 20.86 175.52 13.32H170.88C170.58 13.32 170.36 13.1 170.36 12.8C170.36 12.5 170.58 12.28 170.88 12.28H175.92V6.44C175.92 5.88 176.34 5.48 176.92 5.48C177.48 5.48 177.88 5.88 177.88 6.44V12.28H180.28C181.04 12.28 181.52 11.96 182 11.96C182.5 11.96 182.84 12.3 182.84 12.8C182.84 13.3 182.5 13.64 182 13.64C181.52 13.64 181.04 13.32 180.36 13.32H177.88V36C177.88 36.56 177.48 36.96 176.92 36.96C176.34 36.96 175.92 36.56 175.92 36V19.3C174.34 23.66 172.06 27.26 169.44 29.84C169.16 30.12 168.76 29.72 168.96 29.4ZM171.32 5.06C174.76 4.18 177.68 2.88 180.6 0.959999C181.84 0.159999 182.76 1.92 181.64 2.68C178.68 4.6 175.04 5.64 171.4 5.64C171.04 5.64 171 5.14 171.32 5.06ZM178.72 18.04C178.56 17.8 178.72 17.44 179.08 17.6C180.48 18.32 182.68 19.84 183.4 21.88C183.92 23.32 182.2 24.08 181.52 22.72C180.64 20.92 179.84 19.48 178.72 18.04ZM181.88 16.56C183.76 13.92 184.38 11.68 184.98 8.72C185.06 8.34 185.58 8.36 185.6 8.72C185.82 11.92 185.32 15.88 183.4 17.92C182.44 18.92 181.12 17.68 181.88 16.56ZM188.88 22.04C188.84 21.68 189.44 21.6 189.52 21.92C190.88 26.68 193.24 30.96 195.72 34.48C196.84 36.04 194.88 37.44 193.8 36C191.08 32.28 189.36 27.16 188.88 22.04ZM189.78 17.64C191.62 14.64 192.04 12.28 192.44 9.04C192.6 7.8 194.56 7.88 194.44 9.44C194.2 12.68 192.68 16.04 190.28 18C189.96 18.26 189.62 17.9 189.78 17.64ZM203.96 36.9C203.34 36.9 202.9 36.48 202.9 35.88V2.62C202.9 2 203.34 1.56 203.96 1.56C204.56 1.56 204.98 2 204.98 2.62V3H231.02V2.62C231.02 2 231.46 1.56 232.08 1.56C232.68 1.56 233.1 2 233.1 2.62V35.64C233.1 36.24 232.68 36.66 232.08 36.66C231.46 36.66 231.02 36.24 231.02 35.64V34.4H204.98V35.88C204.98 36.48 204.56 36.9 203.96 36.9ZM204.98 33.36H231.02V4.08H204.98V33.36ZM206.6 23.96C206.6 23.66 206.82 23.44 207.12 23.44H221.94V22.1C221.94 21.48 222.36 21.04 222.96 21.04C223.56 21.04 224.02 21.48 224.02 22.1V23.44H227.56C228.32 23.44 228.8 23.12 229.28 23.12C229.78 23.12 230.12 23.46 230.12 23.96C230.12 24.46 229.78 24.8 229.28 24.8C228.8 24.8 228.32 24.48 227.6 24.48H224.02V28.46C224.02 30.58 222.22 32.7 218.92 31.88C218.62 31.8 218.66 31.4 218.96 31.36C221.44 31 221.94 29.84 221.94 27.94V24.48H207.12C206.82 24.48 206.6 24.26 206.6 23.96ZM206.64 7.8C206.64 7.5 206.86 7.28 207.16 7.28H217V6C217 5.42 217.42 5 218 5C218.56 5 218.96 5.42 218.96 6V7.28H227.18C227.94 7.28 228.42 6.96 228.9 6.96C229.4 6.96 229.74 7.3 229.74 7.8C229.74 8.3 229.4 8.64 228.9 8.64C228.42 8.64 227.94 8.32 227.22 8.32H218.96V10.44H225.1V10.2C225.1 9.64 225.5 9.24 226.06 9.24C226.6 9.24 226.98 9.64 226.98 10.2V17.28C226.98 17.82 226.6 18.2 226.06 18.2C225.5 18.2 225.1 17.82 225.1 17.28V17.08H218.96V19.8C220.56 19.68 222.14 19.5 223.76 19.26C224.12 19.22 224.2 19.74 223.88 19.82C218.92 21.46 213.6 21.82 207.96 21.62C206.8 21.58 206.84 19.98 208.04 20C211.16 20.08 214.1 20.08 217 19.92V17.08H211.08V17.28C211.08 17.84 210.7 18.24 210.16 18.24C209.6 18.24 209.2 17.84 209.2 17.28V10.2C209.2 9.64 209.6 9.24 210.16 9.24C210.7 9.24 211.08 9.64 211.08 10.2V10.44H217V8.32H207.16C206.86 8.32 206.64 8.1 206.64 7.8ZM210.92 26C210.68 25.8 210.84 25.4 211.16 25.48C213 25.92 215.48 26.9 216.54 28.52C217.44 29.9 215.76 31.04 214.82 29.9C213.26 27.98 211.92 26.8 210.92 26ZM211.08 16.04H217V14.28H211.08V16.04ZM211.08 13.24H217V11.48H211.08V13.24ZM218.96 16.04H225.1V14.28H218.96V16.04ZM218.96 13.24H225.1V11.48H218.96V13.24ZM223.88 18.56C223.72 18.4 223.8 18 224.16 18.08C225.84 18.48 227.72 19.56 228.52 21.04C229.16 22.2 227.82 23.36 226.92 22.08C226.14 20.98 225.04 19.56 223.88 18.56ZM274.4 35.4C269.08 35.96 261.64 36.08 256.6 34.6C252.04 33.28 248.28 31.2 245.92 27.52C245.7 27.18 246.12 26.8 246.44 27.12C246.92 27.58 247.4 28 247.88 28.38V15.24H241.76C241.46 15.24 241.24 15.02 241.24 14.72C241.24 14.42 241.5 14.2 241.84 14.2H247.48V8.36H242.64C242.34 8.36 242.12 8.14 242.12 7.84C242.12 7.54 242.38 7.32 242.72 7.32H247.48V1.84C247.48 1.26 247.9 0.839998 248.48 0.839998C249.08 0.839998 249.52 1.26 249.52 1.84V7.32H252.24C252.96 7.32 253.44 7 253.92 7C254.4 7 254.76 7.36 254.76 7.84C254.76 8.32 254.4 8.68 253.92 8.68C253.44 8.68 252.96 8.36 252.28 8.36H249.52V14.2H252.8C253.52 14.2 254 13.88 254.48 13.88C254.96 13.88 255.32 14.24 255.32 14.72C255.32 15.2 254.96 15.56 254.48 15.56C254 15.56 253.52 15.24 252.84 15.24H249.92V20.96H252.32C253.04 20.96 253.52 20.64 254 20.64C254.48 20.64 254.84 21 254.84 21.48C254.84 21.96 254.48 22.32 254 22.32C253.52 22.32 253.04 22 252.36 22H249.92V29.84C251.94 31.08 254.2 31.94 257.08 32.56C261.92 33.6 268.8 33.48 274.2 33C275.88 32.84 275.96 35.24 274.4 35.4ZM240.04 36.4C242.92 31.76 243.68 25.48 243.88 18.68C243.92 17.24 246 17.24 246 18.72C246 26.32 244.56 32.68 240.56 36.84C240.3 37.12 239.8 36.78 240.04 36.4ZM253.08 3.48C253.08 3.2 253.28 3 253.56 3H264.76C265.44 3 265.88 2.68 266.36 2.68C266.8 2.68 267.12 3.02 267.12 3.48C267.12 3.94 266.8 4.28 266.36 4.28C265.88 4.28 265.44 3.96 264.8 3.96H264.12V30.8C264.12 31.36 263.7 31.76 263.12 31.76C262.56 31.76 262.16 31.36 262.16 30.8V18.2H257.84V24.78C258.88 24.54 260.02 24.2 261.24 23.72C261.54 23.6 261.74 24 261.5 24.24C260.26 25.48 257.08 27.44 253.92 27.48C252.64 27.44 252.52 25.6 253.8 25.44C254.42 25.38 255.12 25.3 255.88 25.16V3.96H253.56C253.28 3.96 253.08 3.76 253.08 3.48ZM257.84 17.16H262.16V11.28H257.84V17.16ZM257.84 10.24H262.16V3.96H257.84V10.24ZM264.74 30C266.7 27.26 268.2 23.84 269.32 20.06C268.08 16.42 266.72 13.12 265.24 10.4C265.04 10.04 265.52 9.68 265.8 10.04C267.28 11.96 268.78 14.3 270.12 17C270.84 13.88 271.34 10.58 271.66 7.24H265.52C265.22 7.24 265 7.02 265 6.72C265 6.42 265.22 6.2 265.52 6.2H271.76L271.8 5.64C271.92 4.16 273.92 4.44 273.84 5.76C273.52 10.46 272.7 15.3 271.3 19.62C272.32 22.06 273.18 24.76 273.76 27.64C274.04 29.08 272.08 29.56 271.72 28.12C271.24 26.26 270.72 24.44 270.18 22.68C268.9 25.74 267.26 28.42 265.24 30.44C264.92 30.76 264.48 30.36 264.74 30Z" fill="#333333"/>
</svg>
