<svg width="552" height="76" viewBox="0 0 552 76" fill="none" xmlns="http://www.w3.org/2000/svg">
<path d="M72.56 73.12C63.28 69.6 56.52 64.2 51.6 57.48C44.12 64.48 34.44 69.6 23.36 71.28C22.6 71.4 22.32 70.36 23.16 70.08C34 66.6 42.64 61.04 49.28 53.96C44.8 46.48 42.2 37.6 40.68 27.8L27.6 29.44C26 29.64 25.92 27.44 27.28 27.28L40.36 25.64C39.4 18.68 38.92 11.32 38.72 3.68C38.72 0.879996 42.96 0.959995 43.04 3.68C43.32 11.24 43.8 18.4 44.76 25.12L63.28 22.8C64.88 22.6 65.76 21.84 66.8 21.68C69.12 21.36 69.52 24.8 67.12 25.12C66.08 25.28 65.04 24.8 63.6 24.96L45.12 27.28C46.48 35.8 48.72 43.56 52.36 50.44C56.4 45.4 59.64 39.72 62.08 33.52C62.96 31.12 66.88 32.16 66 35.04C63.72 42.04 59.84 48.68 54.64 54.4C59 61.12 64.92 66.92 73.12 71.68C73.96 72.16 73.44 73.44 72.56 73.12ZM1.92 19.76C1.92 19.16 2.36 18.72 2.96 18.72H14.4V3.68C14.4 2.36 15.28 1.44 16.56 1.44C17.84 1.44 18.72 2.36 18.72 3.68V18.72H26.08C27.6 18.72 28.56 18.08 29.52 18.08C30.52 18.08 31.2 18.76 31.2 19.76C31.2 20.68 30.52 21.36 29.52 21.36C28.56 21.36 27.6 20.8 26.16 20.8H18.72V37.92C22.6 36.2 26.24 34.16 29.92 31.6C30.64 31.08 31.44 32.08 30.88 32.64C27.16 36.56 23.24 39.56 18.72 41.88V60.64C18.72 70.08 13.12 74.88 4.4 73.12C3.6 72.96 3.76 71.84 4.4 71.76C12.96 70.8 14.4 67.52 14.4 59.12V43.88C11.36 45.12 8.04 46.12 4.32 46.96C1.44 47.6 0.48 43.6 3.52 42.88C7.48 41.88 11.08 40.84 14.4 39.64V20.8H2.96C2.36 20.8 1.92 20.36 1.92 19.76ZM49.68 7.04C49.24 6.72 49.52 5.88 50.16 6C54.32 6.88 61.28 10.4 63.68 15.04C64.96 17.44 61.84 19.84 59.84 17.28C57.04 13.52 52.64 9.28 49.68 7.04ZM80.88 38.56C80.08 39.04 79.36 38.08 80 37.44C90.4 26.64 95.2 15.12 98.64 3.2C99.44 0.239995 103.6 1.12 102.96 4.08C100.16 16.72 93.2 30.56 80.88 38.56ZM91.36 71.76V32.88C91.36 31.56 92.24 30.64 93.52 30.64C94.8 30.64 95.68 31.56 95.68 32.88V71.76C95.68 73.12 94.8 74.08 93.52 74.08C92.24 74.08 91.36 73.12 91.36 71.76ZM98.56 47.68C98.56 47.04 99 46.56 99.6 46.56H122.24V31.68H102.48C101.88 31.68 101.44 31.2 101.44 30.56C101.44 29.96 101.88 29.52 102.48 29.52H122.24V3.84C122.24 2.52 123.16 1.6 124.48 1.6C125.76 1.6 126.64 2.52 126.64 3.84V29.52H142.64C144.24 29.52 145.2 28.88 146.24 28.88C147.28 28.88 148 29.56 148 30.56C148 31.6 147.28 32.32 146.24 32.32C145.2 32.32 144.24 31.68 142.72 31.68H126.64V46.56H145.92C147.52 46.56 148.48 45.92 149.52 45.92C150.56 45.92 151.28 46.64 151.28 47.68C151.28 48.72 150.56 49.44 149.52 49.44C148.48 49.44 147.52 48.8 146 48.8H126.64V71.92C126.64 73.12 125.76 74 124.48 74C123.16 74 122.24 73.12 122.24 71.92V48.8H99.6C99 48.8 98.56 48.32 98.56 47.68ZM105.52 10.48C105.2 10 105.6 9.28 106.16 9.52C110.8 11.84 115.6 17.68 117.12 23.12C117.92 26.16 114 27.44 112.96 24.48C111.04 19.36 108.88 14.64 105.52 10.48ZM131.76 25.04C136 20.16 138.32 15.6 140 10.08C140.88 7.04 145.04 8.16 144.4 11.12C143.2 16.8 138 23.04 132.72 26.08C132 26.48 131.28 25.6 131.76 25.04ZM189.2 73.68C188.48 74 188 73.12 188.56 72.64C202.24 62.08 206.6 43.32 207.48 25.6H197.84C197.2 25.6 196.72 25.12 196.72 24.48C196.72 23.88 197.2 23.44 197.84 23.44H207.6C207.64 21.6 207.68 19.72 207.68 17.92V3.92C207.68 2.72 208.56 1.84 209.76 1.84C210.92 1.84 211.76 2.72 211.76 3.92V19.84L211.72 23.44H223.52C225.04 23.44 226.08 22.72 227.12 22.72C228.12 22.72 228.8 23.44 228.8 24.48C228.8 25.52 228.12 26.24 227.12 26.24C226.08 26.24 225.04 25.6 223.6 25.6H211.64C210.92 43.52 206.44 65.12 189.2 73.68ZM160.56 66.88C165.2 62.56 169.12 55.04 170.8 49.36C171.6 46.48 175.52 47.76 174.8 50.4C172.72 58.04 167.84 64.24 161.2 67.84C160.6 68.16 160.12 67.32 160.56 66.88ZM161.44 16.32C161.44 15.68 161.88 15.2 162.48 15.2H194.56C196.16 15.2 197.2 14.56 198.16 14.56C199.2 14.56 199.92 15.28 199.92 16.32C199.92 17.36 199.2 18.08 198.16 18.08C197.2 18.08 196.16 17.44 194.64 17.44H162.48C161.88 17.44 161.44 16.96 161.44 16.32ZM167.68 42.32V23.6C167.68 22.4 168.56 21.52 169.76 21.52C170.92 21.52 171.76 22.4 171.76 23.6V24.48H190.48V23.6C190.48 22.4 191.36 21.52 192.56 21.52C193.72 21.52 194.56 22.4 194.56 23.6V42.08C194.56 43.24 193.72 44.08 192.56 44.08C191.36 44.08 190.48 43.24 190.48 42.08V40.48H183.44V63.36C183.44 71.36 178.16 74.8 171.52 73.12C170.72 72.96 170.8 71.88 171.44 71.8C177.92 70.76 179.36 68.56 179.36 61.92V40.48H171.76V42.32C171.76 43.48 170.92 44.32 169.76 44.32C168.56 44.32 167.68 43.48 167.68 42.32ZM171.68 2.47999C171.28 2.08 171.52 1.28 172.16 1.44C176.08 2.32 181.84 5.36 184.32 9.2C186.08 12 182.8 14.72 180.64 11.92C178.08 8.48 175.2 5.43999 171.68 2.47999ZM171.76 38.4H190.48V26.56H171.76V38.4ZM186.72 48.32C186.32 47.8 186.92 47.08 187.52 47.44C192.64 50.44 195.84 54.48 197.2 58.4C198.16 61.28 194.48 62.72 193.28 60.08C191.52 56 189.92 52.48 186.72 48.32ZM212.8 62.56V33.12C212.8 32 213.76 31.04 214.88 31.04C216 31.04 216.88 32 216.88 33.12V62.56C216.88 66.72 218.48 67.76 222.4 67.84C227.28 67.92 229.2 64.8 230 59.28C230.08 58.72 231.04 58.72 231.12 59.28C232.08 66.56 230.08 71.92 222.4 71.92C216.24 71.92 212.8 68.72 212.8 62.56ZM215.44 6.56C215.08 6.08 215.56 5.48 216.16 5.76C220.48 7.76 224.88 12.72 225.84 16.8C226.48 19.68 222.88 20.72 221.84 18.08C220.08 13.68 218.24 10.16 215.44 6.56ZM241.84 69.44C241.12 69.6 240.8 68.64 241.44 68.24C255.76 60.28 266.72 50.28 273.92 37.24V14.56H244.4C243.76 14.56 243.28 14.08 243.28 13.44C243.28 12.84 243.76 12.4 244.4 12.4H273.92V3.68C273.92 2.4 274.8 1.52 276 1.52C277.28 1.52 278.16 2.4 278.16 3.68V12.4H302.96C304.56 12.4 305.52 11.68 306.56 11.68C307.6 11.68 308.32 12.4 308.32 13.44C308.32 14.48 307.6 15.2 306.56 15.2C305.52 15.2 304.56 14.56 303.04 14.56H278.16V72C278.16 73.2 277.28 74.08 276 74.08C274.8 74.08 273.92 73.2 273.92 72V45.4C267.16 55.24 255.04 64.88 241.84 69.44ZM243.28 45.72C250.68 38.44 255.16 29.24 257.36 20C258 17.32 261.96 18.08 261.56 20.88C259.88 31.56 253.16 41.56 244.08 46.84C243.4 47.24 242.72 46.28 243.28 45.72ZM259.92 30.92C259.52 30.4 260.04 29.68 260.72 29.96C264 31.4 267.92 34 269.6 38.24C270.72 41.2 267.12 42.88 265.68 40.16C263.84 36.56 261.84 33.36 259.92 30.92ZM279.92 43.92C279.48 43.24 280.32 42.56 280.96 43.2C288.8 51.36 298.32 59.2 309.92 64.32C312.72 65.6 310.96 69.84 308.08 68.8C297.12 64.72 286.08 53.76 279.92 43.92ZM280.88 40.04C286 34.72 288.84 29.04 291.04 20.64C291.76 17.68 295.84 18.64 295.28 21.4C293.32 31 288.44 37.36 281.64 41.08C281.08 41.4 280.4 40.6 280.88 40.04ZM293.88 30.24C293.36 29.68 293.92 28.96 294.64 29.32C298.6 31.32 304.16 35.6 306 39.88C307.36 43.04 303.48 44.76 302 42.08C299.68 37.92 297.24 33.96 293.88 30.24ZM359.16 73.6C358.56 74.08 357.88 73.2 358.32 72.64C366.56 63.36 370.72 54.88 373.32 38.2C373.92 34.32 374.16 26.72 374.16 18.96V3.84C374.16 2.72 375 1.92 376.16 1.92C377.28 1.92 378.08 2.72 378.08 3.84V18.96C378.08 26.72 377.84 35.24 377.12 39.84C374.32 58.24 368.08 66.48 359.16 73.6ZM320.88 20.56C320.88 19.96 321.32 19.52 321.92 19.52H330.64V3.59999C330.64 2.44 331.52 1.6 332.72 1.6C333.88 1.6 334.72 2.44 334.72 3.59999V19.52H338.56C340.08 19.52 341.04 18.88 342 18.88C343 18.88 343.68 19.56 343.68 20.56C343.68 21.48 343 22.16 342 22.16C341.04 22.16 340.08 21.6 338.64 21.6H334.72V37.92C337.04 36.76 339.32 35.32 341.92 33.44C342.56 32.96 343.28 33.72 342.72 34.4C340.32 37.28 337.68 39.68 334.72 41.68V62C334.72 70.96 329.88 75.12 322 73.36C321.28 73.2 321.36 72.12 322 72.08C329.04 71.44 330.64 68.72 330.64 60.48V44.08C328.64 45.12 326.44 46 324.08 46.8C321.2 47.68 320.24 43.52 322.72 42.72C325.72 41.68 328.28 40.8 330.64 39.8V21.6H321.92C321.32 21.6 320.88 21.16 320.88 20.56ZM337.92 58.8C343.2 51.44 347.84 41.72 351.04 26.64H341.76C341.16 26.64 340.72 26.2 340.72 25.6C340.72 25 341.16 24.56 341.76 24.56H351.84V12.88C351.84 11.76 352.68 10.96 353.84 10.96C354.96 10.96 355.76 11.76 355.76 12.88V24.56H360.56C362.08 24.56 363.04 23.92 364 23.92C365 23.92 365.68 24.6 365.68 25.6C365.68 26.6 365 27.28 364 27.28C363.04 27.28 362.08 26.64 360.72 26.64H355.76V72C355.76 73.12 354.96 73.92 353.84 73.92C352.68 73.92 351.84 73.12 351.84 72V38.6C348.68 47.32 344.12 54.52 338.88 59.68C338.32 60.24 337.52 59.44 337.92 58.8ZM342.64 10.12C349.52 8.36 355.36 5.76 361.2 1.92C363.68 0.319999 365.52 3.84 363.28 5.36C357.36 9.2 350.08 11.28 342.8 11.28C342.08 11.28 342 10.28 342.64 10.12ZM357.44 36.08C357.12 35.6 357.44 34.88 358.16 35.2C360.96 36.64 365.36 39.68 366.8 43.76C367.84 46.64 364.4 48.16 363.04 45.44C361.28 41.84 359.68 38.96 357.44 36.08ZM363.76 33.12C367.52 27.84 368.76 23.36 369.96 17.44C370.12 16.68 371.16 16.72 371.2 17.44C371.64 23.84 370.64 31.76 366.8 35.84C364.88 37.84 362.24 35.36 363.76 33.12ZM377.76 44.08C377.68 43.36 378.88 43.2 379.04 43.84C381.76 53.36 386.48 61.92 391.44 68.96C393.68 72.08 389.76 74.88 387.6 72C382.16 64.56 378.72 54.32 377.76 44.08ZM379.56 35.28C383.24 29.28 384.08 24.56 384.88 18.08C385.2 15.6 389.12 15.76 388.88 18.88C388.4 25.36 385.36 32.08 380.56 36C379.92 36.52 379.24 35.8 379.56 35.28ZM407.92 73.8C406.68 73.8 405.8 72.96 405.8 71.76V5.24C405.8 4 406.68 3.12 407.92 3.12C409.12 3.12 409.96 4 409.96 5.24V6H462.04V5.24C462.04 4 462.92 3.12 464.16 3.12C465.36 3.12 466.2 4 466.2 5.24V71.28C466.2 72.48 465.36 73.32 464.16 73.32C462.92 73.32 462.04 72.48 462.04 71.28V68.8H409.96V71.76C409.96 72.96 409.12 73.8 407.92 73.8ZM409.96 66.72H462.04V8.16H409.96V66.72ZM413.2 47.92C413.2 47.32 413.64 46.88 414.24 46.88H443.88V44.2C443.88 42.96 444.72 42.08 445.92 42.08C447.12 42.08 448.04 42.96 448.04 44.2V46.88H455.12C456.64 46.88 457.6 46.24 458.56 46.24C459.56 46.24 460.24 46.92 460.24 47.92C460.24 48.92 459.56 49.6 458.56 49.6C457.6 49.6 456.64 48.96 455.2 48.96H448.04V56.92C448.04 61.16 444.44 65.4 437.84 63.76C437.24 63.6 437.32 62.8 437.92 62.72C442.88 62 443.88 59.68 443.88 55.88V48.96H414.24C413.64 48.96 413.2 48.52 413.2 47.92ZM413.28 15.6C413.28 15 413.72 14.56 414.32 14.56H434V12C434 10.84 434.84 10 436 10C437.12 10 437.92 10.84 437.92 12V14.56H454.36C455.88 14.56 456.84 13.92 457.8 13.92C458.8 13.92 459.48 14.6 459.48 15.6C459.48 16.6 458.8 17.28 457.8 17.28C456.84 17.28 455.88 16.64 454.44 16.64H437.92V20.88H450.2V20.4C450.2 19.28 451 18.48 452.12 18.48C453.2 18.48 453.96 19.28 453.96 20.4V34.56C453.96 35.64 453.2 36.4 452.12 36.4C451 36.4 450.2 35.64 450.2 34.56V34.16H437.92V39.6C441.12 39.36 444.28 39 447.52 38.52C448.24 38.44 448.4 39.48 447.76 39.64C437.84 42.92 427.2 43.64 415.92 43.24C413.6 43.16 413.68 39.96 416.08 40C422.32 40.16 428.2 40.16 434 39.84V34.16H422.16V34.56C422.16 35.68 421.4 36.48 420.32 36.48C419.2 36.48 418.4 35.68 418.4 34.56V20.4C418.4 19.28 419.2 18.48 420.32 18.48C421.4 18.48 422.16 19.28 422.16 20.4V20.88H434V16.64H414.32C413.72 16.64 413.28 16.2 413.28 15.6ZM421.84 52C421.36 51.6 421.68 50.8 422.32 50.96C426 51.84 430.96 53.8 433.08 57.04C434.88 59.8 431.52 62.08 429.64 59.8C426.52 55.96 423.84 53.6 421.84 52ZM422.16 32.08H434V28.56H422.16V32.08ZM422.16 26.48H434V22.96H422.16V26.48ZM437.92 32.08H450.2V28.56H437.92V32.08ZM437.92 26.48H450.2V22.96H437.92V26.48ZM447.76 37.12C447.44 36.8 447.6 36 448.32 36.16C451.68 36.96 455.44 39.12 457.04 42.08C458.32 44.4 455.64 46.72 453.84 44.16C452.28 41.96 450.08 39.12 447.76 37.12ZM548.8 70.8C538.16 71.92 523.28 72.16 513.2 69.2C504.08 66.56 496.56 62.4 491.84 55.04C491.4 54.36 492.24 53.6 492.88 54.24C493.84 55.16 494.8 56 495.76 56.76V30.48H483.52C482.92 30.48 482.48 30.04 482.48 29.44C482.48 28.84 483 28.4 483.68 28.4H494.96V16.72H485.28C484.68 16.72 484.24 16.28 484.24 15.68C484.24 15.08 484.76 14.64 485.44 14.64H494.96V3.68C494.96 2.52 495.8 1.68 496.96 1.68C498.16 1.68 499.04 2.52 499.04 3.68V14.64H504.48C505.92 14.64 506.88 14 507.84 14C508.8 14 509.52 14.72 509.52 15.68C509.52 16.64 508.8 17.36 507.84 17.36C506.88 17.36 505.92 16.72 504.56 16.72H499.04V28.4H505.6C507.04 28.4 508 27.76 508.96 27.76C509.92 27.76 510.64 28.48 510.64 29.44C510.64 30.4 509.92 31.12 508.96 31.12C508 31.12 507.04 30.48 505.68 30.48H499.84V41.92H504.64C506.08 41.92 507.04 41.28 508 41.28C508.96 41.28 509.68 42 509.68 42.96C509.68 43.92 508.96 44.64 508 44.64C507.04 44.64 506.08 44 504.72 44H499.84V59.68C503.88 62.16 508.4 63.88 514.16 65.12C523.84 67.2 537.6 66.96 548.4 66C551.76 65.68 551.92 70.48 548.8 70.8ZM480.08 72.8C485.84 63.52 487.36 50.96 487.76 37.36C487.84 34.48 492 34.48 492 37.44C492 52.64 489.12 65.36 481.12 73.68C480.6 74.24 479.6 73.56 480.08 72.8ZM506.16 6.96C506.16 6.4 506.56 6 507.12 6H529.52C530.88 6 531.76 5.36 532.72 5.36C533.6 5.36 534.24 6.04 534.24 6.96C534.24 7.88 533.6 8.56 532.72 8.56C531.76 8.56 530.88 7.92 529.6 7.92H528.24V61.6C528.24 62.72 527.4 63.52 526.24 63.52C525.12 63.52 524.32 62.72 524.32 61.6V36.4H515.68V49.56C517.76 49.08 520.04 48.4 522.48 47.44C523.08 47.2 523.48 48 523 48.48C520.52 50.96 514.16 54.88 507.84 54.96C505.28 54.88 505.04 51.2 507.6 50.88C508.84 50.76 510.24 50.6 511.76 50.32V7.92H507.12C506.56 7.92 506.16 7.52 506.16 6.96ZM515.68 34.32H524.32V22.56H515.68V34.32ZM515.68 20.48H524.32V7.92H515.68V20.48ZM529.48 60C533.4 54.52 536.4 47.68 538.64 40.12C536.16 32.84 533.44 26.24 530.48 20.8C530.08 20.08 531.04 19.36 531.6 20.08C534.56 23.92 537.56 28.6 540.24 34C541.68 27.76 542.68 21.16 543.32 14.48H531.04C530.44 14.48 530 14.04 530 13.44C530 12.84 530.44 12.4 531.04 12.4H543.52L543.6 11.28C543.84 8.32 547.84 8.88 547.68 11.52C547.04 20.92 545.4 30.6 542.6 39.24C544.64 44.12 546.36 49.52 547.52 55.28C548.08 58.16 544.16 59.12 543.44 56.24C542.48 52.52 541.44 48.88 540.36 45.36C537.8 51.48 534.52 56.84 530.48 60.88C529.84 61.52 528.96 60.72 529.48 60Z" fill="#333333"/>
</svg>
