<svg width="20" height="24" viewBox="0 0 21 19" fill="none" xmlns="http://www.w3.org/2000/svg">
<path d="M0.666016 6.96094V6.76562C0.666016 4.03125 2.61914 1.6875 5.31445 1.25781C7.07227 0.945312 8.9082 1.53125 10.1973 2.82031L10.666 3.25L11.0957 2.82031C12.3848 1.53125 14.2207 0.945312 15.9785 1.25781C18.6738 1.6875 20.666 4.03125 20.666 6.76562V6.96094C20.666 8.60156 19.9629 10.1641 18.791 11.2578L11.7207 17.8594C11.4473 18.1328 11.0566 18.25 10.666 18.25C10.2363 18.25 9.8457 18.1328 9.57227 17.8594L2.50195 11.2578C1.33008 10.1641 0.666016 8.60156 0.666016 6.96094Z" fill="#F9564F"/>
</svg>
