<svg width="46" height="45" viewBox="0 0 46 45" fill="none" xmlns="http://www.w3.org/2000/svg">
<path d="M2 19.4141V18.9844C2 12.9688 6.29688 7.8125 12.2266 6.86719C16.0938 6.17969 20.1328 7.46875 22.9688 10.3047L24 11.25L24.9453 10.3047C27.7812 7.46875 31.8203 6.17969 35.6875 6.86719C41.6172 7.8125 46 12.9688 46 18.9844V19.4141C46 23.0234 44.4531 26.4609 41.875 28.8672L26.3203 43.3906C25.7188 43.9922 24.8594 44.25 24 44.25C23.0547 44.25 22.1953 43.9922 21.5938 43.3906L6.03906 28.8672C3.46094 26.4609 2 23.0234 2 19.4141Z" fill="#FCFF6F"/>
<path d="M22 11.25L23.0938 9.92188C25.4375 6.875 29.3438 5.46875 33.0938 6.09375C38.25 6.95312 42 11.3281 42 16.4844V17.4219C42 20.7031 40.5938 23.8281 38.25 26.0156L24.1094 39.2188C23.5625 39.7656 22.7812 40 22 40C21.1406 40 20.3594 39.7656 19.8125 39.2188L5.67188 26.0156C3.32812 23.8281 2 20.7031 2 17.4219V16.4844C2 11.3281 5.67188 6.95312 10.8281 6.09375C14.5781 5.46875 18.4844 6.875 20.8281 9.92188L22 11.25ZM22 13.2812L19.8906 10.7031C17.7812 8.04688 14.3438 6.71875 11.0625 7.26562C6.53125 8.04688 3.25 11.9531 3.25 16.4844V17.4219C3.25 20.3125 4.42188 23.125 6.53125 25.0781L20.6719 38.2812C20.9844 38.5938 21.4531 38.75 22 38.75C22.4688 38.75 22.9375 38.5938 23.25 38.2812L37.3906 25.0781C39.5 23.125 40.75 20.3125 40.75 17.4219V16.4844C40.75 11.9531 37.3906 8.04688 32.8594 7.26562C29.5781 6.71875 26.1406 8.04688 24.0312 10.7031L22 13.2812Z" fill="#333333"/>
</svg>
