<svg width="46" height="47" viewBox="0 0 46 47" fill="none" xmlns="http://www.w3.org/2000/svg">
<path d="M7.5 45.625V5.75C7.5 4.28906 6.21094 3 4.75 3C3.20312 3 2 4.28906 2 5.75V45.625C2 46.3984 2.60156 47 3.375 47H6.125C6.8125 47 7.5 46.3984 7.5 45.625ZM42.9062 3C44.5391 3 46 4.03125 46 5.66406V31.6172C46 32.6484 45.3125 33.5938 44.1094 34.0234C40.4141 35.4844 37.3203 36 34.5703 36C28.2109 36 23.8281 33.3359 17.4688 33.3359C15.3203 33.3359 13 33.6797 10.25 34.5391V4.375C13.2578 3.42969 15.75 3.08594 17.8984 3.08594C23.8281 3.08594 26.8359 5.83594 31.9922 5.83594C34.3984 5.83594 37.3203 5.23438 41.1875 3.42969C41.7891 3.17188 42.3047 3 42.9062 3Z" fill="#FCFF6F"/>
<path d="M40.9062 3.04688C41.5312 3.4375 42 4.21875 42 5.07812L41.8438 28.4375C41.8438 29.4531 41.2188 30.3906 40.2812 30.7031C37.2344 31.9531 34.3438 32.5 31.6094 32.5C28.7188 32.5 26.2188 31.875 23.875 31.3281C21.375 30.625 18.9531 30.0781 16.0625 30.0781C10.9844 30.0781 6.375 32.1875 4.8125 32.8906L3.25 33.6719V41.875C3.25 42.2656 2.9375 42.5 2.625 42.5C2.23438 42.5 2 42.2656 2 41.875V3.125C2 2.8125 2.23438 2.5 2.625 2.5C2.9375 2.5 3.25 2.8125 3.25 3.125V6.09375L4.5 5.54688C11.2969 2.8125 14.2656 2.57812 16.4531 2.57812C19.1875 2.57812 21.2969 3.20312 23.3281 3.90625C25.2031 4.45312 27 5.07812 29.2656 5.07812C31.6875 5.07812 34.4219 4.375 37.625 2.89062C38.1719 2.65625 38.6406 2.5 39.1875 2.5C39.8125 2.5 40.3594 2.73438 40.9062 3.04688ZM40.6719 28.4375L40.75 5.07812C40.75 4.60938 40.5156 4.29688 40.2812 4.0625C39.8906 3.90625 39.5781 3.75 39.1875 3.75C38.875 3.75 38.4844 3.82812 38.1719 3.98438C34.7344 5.54688 31.9219 6.32812 29.2656 6.32812C26.7656 6.32812 24.8125 5.70312 22.9375 5.07812C20.9062 4.45312 19.0312 3.82812 16.4531 3.82812C14.3438 3.82812 11.6094 4.0625 4.96875 6.71875L3.25 7.42188V32.2656L4.34375 31.7969C5.90625 31.0156 10.75 28.8281 16.0625 28.8281C19.1094 28.8281 21.5312 29.4531 24.1875 30.0781C26.4531 30.7031 28.875 31.25 31.6094 31.25C34.1875 31.25 36.9219 30.7031 39.8906 29.5312C40.3594 29.375 40.6719 28.9062 40.6719 28.4375Z" fill="#333333"/>
</svg>
