<svg width="713" height="76" viewBox="0 0 713 76" fill="none" xmlns="http://www.w3.org/2000/svg">
<path d="M2 58C1.48 58.44 0.6 57.76 1.08 57.04C9.24 45.88 13.6 33.8 16.2 21.84H3.96C3.36 21.84 2.92 21.36 2.92 20.72C2.92 20.12 3.36 19.68 3.96 19.68H16.6V3.44C16.6 2.16 17.48 1.28 18.76 1.28C20.04 1.28 20.92 2.16 20.92 3.44V19.68H29.08C30.6 19.68 31.56 19.12 32.52 19.12C33.52 19.12 34.2 19.8 34.2 20.72C34.2 21.72 33.52 22.4 32.52 22.4C31.56 22.4 30.6 21.84 29.24 21.84H20.92V71.68C20.92 72.96 20.04 73.84 18.76 73.84C17.48 73.84 16.6 72.96 16.6 71.68V36.24C13.6 44.32 9 51.88 2 58ZM23.24 30.32C22.84 29.84 23.36 29.04 24.08 29.44C28.12 31.64 32.36 36 33.4 40.24C34.12 43.36 30.28 44.48 29.24 41.6C27.64 37.36 25.72 33.52 23.24 30.32ZM36.52 71.76V7.2C36.52 5.92 37.4 5.04 38.68 5.04C39.96 5.04 40.84 5.92 40.84 7.2V8.08H62.92V7.2C62.92 5.92 63.8 5.04 65.08 5.04C66.36 5.04 67.24 5.92 67.24 7.2V71.12C67.24 72.4 66.36 73.28 65.08 73.28C63.8 73.28 62.92 72.4 62.92 71.12V65.76H40.84V71.76C40.84 73.04 39.96 73.92 38.68 73.92C37.4 73.92 36.52 73.04 36.52 71.76ZM40.84 63.68H62.92V46.08H40.84V63.68ZM40.84 44H62.92V28.16H40.84V44ZM40.84 26.08H62.92V10.16H40.84V26.08ZM150.68 70.8C139.56 72.08 126.36 72.4 116.28 70.32C107.96 68.64 101.8 65.44 97.4 57.6C97 56.92 97.88 56.12 98.52 56.8C104.2 62.8 109.8 65.28 117.24 66.48C126.92 68 139 67.36 150.28 66.24C153.64 65.92 153.8 70.4 150.68 70.8ZM81.96 39.12C81.96 38.52 82.4 38.08 83 38.08H95.76L95.8 36.4C95.8 33.52 99.96 33.52 99.96 36.48C99.96 51.52 94.92 64.88 83.08 73.2C82.4 73.68 81.72 72.72 82.2 72.16C90.32 63.32 94.88 52.16 95.68 40.16H83C82.4 40.16 81.96 39.72 81.96 39.12ZM84.12 18.08C83.6 17.68 84.04 16.8 84.68 17C89.8 18.6 95.08 21.44 97.8 26.4C99.24 29.12 95.96 31.28 94.2 28.8C90.84 24 88.52 21.48 84.12 18.08ZM87.48 3.84C87 3.44 87.32 2.56 87.96 2.72C93.16 4 98.6 7.04 101.32 12C102.76 14.72 99.48 16.88 97.72 14.4C94.36 9.6 91.88 7.2 87.48 3.84ZM106.04 60.16V34.72C106.04 33.52 106.88 32.64 108.04 32.64C109.24 32.64 110.12 33.48 110.12 34.64V35.68H124.68V26.88H113.8V28.24C113.8 29.36 112.96 30.16 111.8 30.16C110.72 30.16 109.96 29.36 109.96 28.24V5.84C109.96 4.72 110.76 3.92 111.88 3.92C113 3.92 113.8 4.72 113.8 5.84V6.96H139.64V5.76C139.64 4.64 140.48 3.84 141.64 3.84C142.76 3.84 143.56 4.68 143.56 5.84V28.24C143.56 29.4 142.72 30.24 141.56 30.24C140.44 30.24 139.64 29.4 139.64 28.24V26.88H128.76V35.68H143.32V34.72C143.32 33.52 144.2 32.64 145.4 32.64C146.56 32.64 147.4 33.52 147.4 34.72V52.4C147.4 59.12 143 63.04 136.28 61.52C135.64 61.36 135.64 60.48 136.28 60.4C141.96 59.52 143.32 56.96 143.32 51.44V37.76H128.76V47.92C130.2 47.6 131.6 47.24 132.96 46.8C133.56 46.6 134.04 47.48 133.48 47.92C128.36 51.96 120.52 53.52 114.84 53.44C112.2 53.4 112.2 49.6 114.68 49.44C117.84 49.24 121.28 49.04 124.68 48.6V37.76H110.12V60.16C110.12 61.32 109.28 62.16 108.12 62.16C106.92 62.16 106.04 61.32 106.04 60.16ZM113.8 24.8H124.68V17.92H113.8V24.8ZM113.8 15.84H124.68V9.04H113.8V15.84ZM128.76 24.8H139.64V17.92H128.76V24.8ZM128.76 15.84H139.64V9.04H128.76V15.84ZM132.4 41.96C132.08 41.48 132.64 40.84 133.2 41.2C136.12 43.24 140 47.12 140.8 51.12C141.36 53.88 137.84 54.52 136.92 51.96C135.6 48.24 134.52 45.44 132.4 41.96ZM162.36 73.6C161.8 74.08 160.92 73.4 161.48 72.68C171.12 60.16 172.16 43.88 172.56 20.28H163.68C163.04 20.28 162.6 19.8 162.6 19.2C162.6 18.6 163.04 18.12 163.68 18.12H192.16C193.72 18.12 194.72 17.48 195.68 17.48C196.72 17.48 197.4 18.16 197.4 19.2C197.4 20.2 196.72 20.92 195.68 20.92C194.72 20.92 193.72 20.28 192.24 20.28H176.72C176.4 45.12 175.04 62.8 162.36 73.6ZM171.24 3.04C170.76 2.6 171.08 1.75999 171.8 1.92C175.8 2.88 182.28 7.12 185.04 12.48C186.52 15.32 183.08 17.4 181.4 14.88C178.04 9.76 174.16 5.72 171.24 3.04ZM174.84 71.04C174.12 70.88 174.12 69.72 175 69.72C184 69.88 187.04 65.96 187.32 57L188.04 34H178.92C178.32 34 177.88 33.56 177.88 32.96C177.88 32.32 178.32 31.84 178.92 31.84H188.08L188.16 29.48C188.24 26.72 192.44 26.8 192.36 29.56L191.44 58.96C191.12 69.08 184.32 73.96 174.84 71.04ZM193.68 36.52C202.08 26.84 207.16 15.48 210.2 3.28C210.88 0.559996 215.04 1.44 214.36 4.31999C211.56 16.48 205.4 29.16 194.52 37.6C194 38 193.12 37.16 193.68 36.52ZM199.96 51.72C199.24 51.28 199.72 50.28 200.48 50.52C210.88 53.72 220.56 60.92 226.16 68.2C228.36 71 224.92 73.96 222.64 71.24C216.52 63.96 207.84 56.6 199.96 51.72ZM205.24 34.8C204.6 34.36 205.08 33.48 205.72 33.64C212.08 35.2 219.4 39.84 222.52 44.64C224.32 47.36 221.04 49.88 218.96 47.4C214.56 42.16 210.12 37.88 205.24 34.8ZM213.4 12.08C213.16 11.36 214.2 10.92 214.56 11.56C219.04 19.4 225.08 26.56 231.72 32.24C234.6 34.64 231.64 38.24 229.16 36.32C221.16 30.08 216.28 21.04 213.4 12.08ZM275.12 71.44C266.96 71.12 262.04 67.64 262.04 58.72V18.12C262.04 16.88 262.92 16 264.16 16C265.52 16 266.44 16.88 266.44 18.12V57.76C266.44 65.32 269 66.8 276.52 67.16C279.88 67.32 283.24 67.32 286.6 67.16C295.84 66.72 297.8 60.32 298.8 51.6C298.88 50.88 300.04 50.88 300.16 51.6C302.12 64.6 296.76 71.12 287.32 71.44C283.24 71.6 279.2 71.6 275.12 71.44ZM242.12 54.64C249.44 46.04 252.68 37.68 254.6 28.96C254.76 28.24 255.88 28.32 255.88 29.04C255.88 40.08 253.4 49.84 245.28 57.64C242.84 60 240.16 56.92 242.12 54.64ZM264.44 5.2C263.76 4.88 263.88 3.8 264.76 3.92C273.72 5.2 283.28 9.76 287.84 14.48C290.48 17.2 287.2 20.4 284.76 18.08C278 11.72 270.36 7.76 264.44 5.2ZM293 29.04C292.48 28.48 293.08 27.72 293.72 28.08C302.92 33.12 309.84 42.16 312.2 52.8C312.92 56.12 308.64 57.28 307.64 53.92C304.52 43.44 299.56 35.84 293 29.04ZM354.12 48.08C353.4 48.4 352.76 47.76 353.4 47.04C355.32 44.96 356.6 42.32 356.6 39.28C353.96 39.6 351.8 37.64 351.8 34.88C351.8 32.24 353.96 30.08 356.6 30.08C358.92 30.08 361.48 31.92 361.48 35.36C361.48 40.96 358.84 46 354.12 48.08ZM449.88 72.96C449 72.88 449.08 71.68 449.8 71.6C460.04 70.48 461.56 65.68 461.56 56.8V9H412.68V72.08C412.68 73.28 411.64 74.24 410.52 74.24C409.32 74.24 408.36 73.28 408.36 72.08V5.92C408.36 4.68 409.28 3.76 410.52 3.76C411.76 3.76 412.68 4.68 412.68 5.92V6.84H461.56V6C461.56 4.72 462.48 3.76 463.72 3.76C464.96 3.76 465.88 4.72 465.88 6V58.24C465.88 68.24 461.72 74.48 449.88 72.96ZM417.48 20.96C417.48 20.36 417.92 19.88 418.56 19.88H452C453.56 19.88 454.52 19.32 455.52 19.32C456.48 19.32 457.24 20.04 457.24 20.96C457.24 21.92 456.48 22.68 455.52 22.68C454.52 22.68 453.56 22 452.08 22H418.56C417.92 22 417.48 21.56 417.48 20.96ZM423.28 57.68V32.12C423.28 30.92 424.12 30.08 425.32 30.08C426.56 30.08 427.44 30.92 427.44 32.12V33.6H446V32.12C446 30.92 446.84 30.08 448.04 30.08C449.28 30.08 450.16 30.92 450.16 32.12V56.72C450.16 57.96 449.28 58.84 448.04 58.84C446.84 58.84 446 57.96 446 56.72V52.88H427.44V57.68C427.44 58.92 426.56 59.8 425.32 59.8C424.12 59.8 423.28 58.92 423.28 57.68ZM427.44 50.72H446V35.76H427.44V50.72ZM482.68 42.96C482.04 43.2 481.52 42.32 482.2 41.88C491.32 36.08 499.08 28.84 504.28 19.52C505.8 16.8 509.48 18.76 508.2 21.36C503.24 31.32 494.2 38.76 482.68 42.96ZM483 24.12C491.36 18.32 497.04 12.4 501.76 3.04C502.92 0.719998 507 2.04 505.68 5.04C501.88 13.92 493.08 22.24 483.48 25.24C482.84 25.44 482.32 24.64 483 24.12ZM495.08 71.6V40.96C495.08 39.6 496.04 38.64 497.32 38.64C498.6 38.64 499.56 39.6 499.56 40.96V71.6C499.56 72.8 498.64 73.76 497.32 73.76C496 73.76 495.08 72.8 495.08 71.6ZM508.84 30.96C508.84 30.28 509.36 29.76 510.04 29.76H546.76C548.44 29.76 549.56 29.04 550.68 29.04C551.8 29.04 552.6 29.84 552.6 30.96C552.6 32.08 551.8 32.88 550.68 32.88C549.56 32.88 548.44 32.16 546.84 32.16H540.36V60.32C540.36 70.08 534.76 75.2 525.56 73.28C524.6 73.12 524.8 71.96 525.56 71.84C533.88 70.88 535.88 67.44 535.88 58.64V32.16H510.04C509.36 32.16 508.84 31.64 508.84 30.96ZM514.36 8.39999C514.36 7.72 514.88 7.2 515.56 7.2H542.52C544.2 7.2 545.32 6.48 546.44 6.48C547.56 6.48 548.36 7.27999 548.36 8.39999C548.36 9.52 547.56 10.32 546.44 10.32C545.32 10.32 544.2 9.6 542.6 9.6H515.56C514.88 9.6 514.36 9.08 514.36 8.39999ZM562.36 73.6C561.8 74.08 560.92 73.4 561.48 72.68C571.12 60.16 572.16 43.88 572.56 20.28H563.68C563.04 20.28 562.6 19.8 562.6 19.2C562.6 18.6 563.04 18.12 563.68 18.12H592.16C593.72 18.12 594.72 17.48 595.68 17.48C596.72 17.48 597.4 18.16 597.4 19.2C597.4 20.2 596.72 20.92 595.68 20.92C594.72 20.92 593.72 20.28 592.24 20.28H576.72C576.4 45.12 575.04 62.8 562.36 73.6ZM571.24 3.04C570.76 2.6 571.08 1.75999 571.8 1.92C575.8 2.88 582.28 7.12 585.04 12.48C586.52 15.32 583.08 17.4 581.4 14.88C578.04 9.76 574.16 5.72 571.24 3.04ZM574.84 71.04C574.12 70.88 574.12 69.72 575 69.72C584 69.88 587.04 65.96 587.32 57L588.04 34H578.92C578.32 34 577.88 33.56 577.88 32.96C577.88 32.32 578.32 31.84 578.92 31.84H588.08L588.16 29.48C588.24 26.72 592.44 26.8 592.36 29.56L591.44 58.96C591.12 69.08 584.32 73.96 574.84 71.04ZM593.68 36.52C602.08 26.84 607.16 15.48 610.2 3.28C610.88 0.559996 615.04 1.44 614.36 4.31999C611.56 16.48 605.4 29.16 594.52 37.6C594 38 593.12 37.16 593.68 36.52ZM599.96 51.72C599.24 51.28 599.72 50.28 600.48 50.52C610.88 53.72 620.56 60.92 626.16 68.2C628.36 71 624.92 73.96 622.64 71.24C616.52 63.96 607.84 56.6 599.96 51.72ZM605.24 34.8C604.6 34.36 605.08 33.48 605.72 33.64C612.08 35.2 619.4 39.84 622.52 44.64C624.32 47.36 621.04 49.88 618.96 47.4C614.56 42.16 610.12 37.88 605.24 34.8ZM613.4 12.08C613.16 11.36 614.2 10.92 614.56 11.56C619.04 19.4 625.08 26.56 631.72 32.24C634.6 34.64 631.64 38.24 629.16 36.32C621.16 30.08 616.28 21.04 613.4 12.08ZM709.8 70.8C699.16 71.92 684.28 72.16 674.2 69.2C665.08 66.56 657.56 62.4 652.84 55.04C652.4 54.36 653.24 53.6 653.88 54.24C654.84 55.16 655.8 56 656.76 56.76V30.48H644.52C643.92 30.48 643.48 30.04 643.48 29.44C643.48 28.84 644 28.4 644.68 28.4H655.96V16.72H646.28C645.68 16.72 645.24 16.28 645.24 15.68C645.24 15.08 645.76 14.64 646.44 14.64H655.96V3.68C655.96 2.52 656.8 1.68 657.96 1.68C659.16 1.68 660.04 2.52 660.04 3.68V14.64H665.48C666.92 14.64 667.88 14 668.84 14C669.8 14 670.52 14.72 670.52 15.68C670.52 16.64 669.8 17.36 668.84 17.36C667.88 17.36 666.92 16.72 665.56 16.72H660.04V28.4H666.6C668.04 28.4 669 27.76 669.96 27.76C670.92 27.76 671.64 28.48 671.64 29.44C671.64 30.4 670.92 31.12 669.96 31.12C669 31.12 668.04 30.48 666.68 30.48H660.84V41.92H665.64C667.08 41.92 668.04 41.28 669 41.28C669.96 41.28 670.68 42 670.68 42.96C670.68 43.92 669.96 44.64 669 44.64C668.04 44.64 667.08 44 665.72 44H660.84V59.68C664.88 62.16 669.4 63.88 675.16 65.12C684.84 67.2 698.6 66.96 709.4 66C712.76 65.68 712.92 70.48 709.8 70.8ZM641.08 72.8C646.84 63.52 648.36 50.96 648.76 37.36C648.84 34.48 653 34.48 653 37.44C653 52.64 650.12 65.36 642.12 73.68C641.6 74.24 640.6 73.56 641.08 72.8ZM667.16 6.96C667.16 6.4 667.56 6 668.12 6H690.52C691.88 6 692.76 5.36 693.72 5.36C694.6 5.36 695.24 6.04 695.24 6.96C695.24 7.88 694.6 8.56 693.72 8.56C692.76 8.56 691.88 7.92 690.6 7.92H689.24V61.6C689.24 62.72 688.4 63.52 687.24 63.52C686.12 63.52 685.32 62.72 685.32 61.6V36.4H676.68V49.56C678.76 49.08 681.04 48.4 683.48 47.44C684.08 47.2 684.48 48 684 48.48C681.52 50.96 675.16 54.88 668.84 54.96C666.28 54.88 666.04 51.2 668.6 50.88C669.84 50.76 671.24 50.6 672.76 50.32V7.92H668.12C667.56 7.92 667.16 7.52 667.16 6.96ZM676.68 34.32H685.32V22.56H676.68V34.32ZM676.68 20.48H685.32V7.92H676.68V20.48ZM690.48 60C694.4 54.52 697.4 47.68 699.64 40.12C697.16 32.84 694.44 26.24 691.48 20.8C691.08 20.08 692.04 19.36 692.6 20.08C695.56 23.92 698.56 28.6 701.24 34C702.68 27.76 703.68 21.16 704.32 14.48H692.04C691.44 14.48 691 14.04 691 13.44C691 12.84 691.44 12.4 692.04 12.4H704.52L704.6 11.28C704.84 8.32 708.84 8.88 708.68 11.52C708.04 20.92 706.4 30.6 703.6 39.24C705.64 44.12 707.36 49.52 708.52 55.28C709.08 58.16 705.16 59.12 704.44 56.24C703.48 52.52 702.44 48.88 701.36 45.36C698.8 51.48 695.52 56.84 691.48 60.88C690.84 61.52 689.96 60.72 690.48 60Z" fill="#333333"/>
</svg>
