<svg width="192" height="72" viewBox="0 0 192 72" fill="none" xmlns="http://www.w3.org/2000/svg">
<path d="M25.8977 57.3599C25.5377 57.6479 25.1297 57.1199 25.3937 56.7839C30.3377 51.2159 32.8337 46.1279 34.3937 36.1199C34.7537 33.7919 34.8977 29.2319 34.8977 24.5759V15.5039C34.8977 14.8319 35.4017 14.3519 36.0977 14.3519C36.7697 14.3519 37.2497 14.8319 37.2497 15.5039V24.5759C37.2497 29.2319 37.1057 34.3439 36.6737 37.1039C34.9937 48.1439 31.2497 53.0879 25.8977 57.3599ZM2.92969 25.5359C2.92969 25.1759 3.19369 24.9119 3.55369 24.9119H8.78569V15.3599C8.78569 14.6639 9.31369 14.1599 10.0337 14.1599C10.7297 14.1599 11.2337 14.6639 11.2337 15.3599V24.9119H13.5377C14.4497 24.9119 15.0257 24.5279 15.6017 24.5279C16.2017 24.5279 16.6097 24.9359 16.6097 25.5359C16.6097 26.0879 16.2017 26.4959 15.6017 26.4959C15.0257 26.4959 14.4497 26.1599 13.5857 26.1599H11.2337V35.9519C12.6257 35.2559 13.9937 34.3919 15.5537 33.2639C15.9377 32.9759 16.3697 33.4319 16.0337 33.8399C14.5937 35.5679 13.0097 37.0079 11.2337 38.2079V50.3999C11.2337 55.7759 8.32969 58.2719 3.60169 57.2159C3.16969 57.1199 3.21769 56.4719 3.60169 56.4479C7.82569 56.0639 8.78569 54.4319 8.78569 49.4879V39.6479C7.58569 40.2719 6.26569 40.7999 4.84969 41.2799C3.12169 41.8079 2.54569 39.3119 4.03369 38.8319C5.83369 38.2079 7.36969 37.6799 8.78569 37.0799V26.1599H3.55369C3.19369 26.1599 2.92969 25.8959 2.92969 25.5359ZM13.1537 48.4799C16.3217 44.0639 19.1057 38.2319 21.0257 29.1839H15.4577C15.0977 29.1839 14.8337 28.9199 14.8337 28.5599C14.8337 28.1999 15.0977 27.9359 15.4577 27.9359H21.5057V20.9279C21.5057 20.2559 22.0097 19.7759 22.7057 19.7759C23.3777 19.7759 23.8577 20.2559 23.8577 20.9279V27.9359H26.7377C27.6497 27.9359 28.2257 27.5519 28.8017 27.5519C29.4017 27.5519 29.8097 27.9599 29.8097 28.5599C29.8097 29.1599 29.4017 29.5679 28.8017 29.5679C28.2257 29.5679 27.6497 29.1839 26.8337 29.1839H23.8577V56.3999C23.8577 57.0719 23.3777 57.5519 22.7057 57.5519C22.0097 57.5519 21.5057 57.0719 21.5057 56.3999V36.3599C19.6097 41.5919 16.8737 45.9119 13.7297 49.0079C13.3937 49.3439 12.9137 48.8639 13.1537 48.4799ZM15.9857 19.2719C20.1137 18.2159 23.6177 16.6559 27.1217 14.3519C28.6097 13.3919 29.7137 15.5039 28.3697 16.4159C24.8177 18.7199 20.4497 19.9679 16.0817 19.9679C15.6497 19.9679 15.6017 19.3679 15.9857 19.2719ZM24.8657 34.8479C24.6737 34.5599 24.8657 34.1279 25.2977 34.3199C26.9777 35.1839 29.6177 37.0079 30.4817 39.4559C31.1057 41.1839 29.0417 42.0959 28.2257 40.4639C27.1697 38.3039 26.2097 36.5759 24.8657 34.8479ZM28.6577 33.0719C30.9137 29.9039 31.6577 27.2159 32.3777 23.6639C32.4737 23.2079 33.0977 23.2319 33.1217 23.6639C33.3857 27.5039 32.7857 32.2559 30.4817 34.7039C29.3297 35.9039 27.7457 34.4159 28.6577 33.0719ZM37.0577 39.6479C37.0097 39.2159 37.7297 39.1199 37.8257 39.5039C39.4577 45.2159 42.2897 50.3519 45.2657 54.5759C46.6097 56.4479 44.2577 58.1279 42.9617 56.3999C39.6977 51.9359 37.6337 45.7919 37.0577 39.6479ZM38.1377 34.3679C40.3457 30.7679 40.8497 27.9359 41.3297 24.0479C41.5217 22.5599 43.8737 22.6559 43.7297 24.5279C43.4417 28.4159 41.6177 32.4479 38.7377 34.7999C38.3537 35.1119 37.9457 34.6799 38.1377 34.3679Z" fill="#333333"/>
<path d="M53.1377 57.4079C52.6097 57.4559 52.5137 56.6879 53.0417 56.5919C61.3697 54.6719 68.3297 51.7919 73.6817 47.2799C70.6097 44.0399 68.2337 40.1999 66.6737 35.9999C66.5297 35.5199 67.1057 35.1359 67.4417 35.6639C69.6977 39.4799 72.2897 42.8879 75.4097 45.7199C78.8897 42.3359 81.5777 38.1359 83.4497 32.8799H65.4977C63.2417 40.8719 59.1617 48.2159 51.3617 53.4239C50.8337 53.7599 50.4737 53.0879 50.8337 52.7519C59.9537 44.1359 63.1697 34.2239 64.6817 23.9519H51.9377C51.5777 23.9519 51.3137 23.6639 51.3137 23.2799C51.3137 22.8959 51.5777 22.6079 51.9377 22.6079H64.8497C65.1857 20.1839 65.4017 17.7119 65.6177 15.2639C65.7617 13.6799 68.3537 13.7759 68.2097 15.5039C68.0417 17.8559 67.8017 20.2319 67.5137 22.6079H88.7537C89.7137 22.6079 90.2897 22.2239 90.9137 22.2239C91.5377 22.2239 91.9697 22.6559 91.9697 23.2799C91.9697 23.9039 91.5377 24.3359 90.9137 24.3359C90.2897 24.3359 89.7137 23.9519 88.8017 23.9519H67.3217C66.9617 26.5199 66.4817 29.0879 65.8337 31.5839H83.8817L84.1457 30.7679C84.7217 28.8959 87.1697 29.6639 86.6897 31.4879C84.9857 37.9439 81.7697 43.2479 77.3537 47.3519C81.2897 50.4239 86.0177 52.7039 91.9217 53.9999C93.9377 54.4319 93.4577 57.2639 91.4417 56.8799C85.1057 55.6559 79.7057 52.8479 75.4337 49.0079C69.5777 53.6639 61.9217 56.5199 53.1377 57.4079Z" fill="#333333"/>
<path d="M99.7457 57.4079C99.2657 57.4559 99.1217 56.7839 99.6017 56.6399C107.33 54.2879 113.69 50.9039 118.49 46.1279C115.586 43.0319 113.258 39.3119 111.602 34.9919C111.458 34.5119 112.154 34.1999 112.394 34.6079C114.602 38.3039 117.122 41.5679 120.122 44.3519C122.882 41.1839 125.018 37.4639 126.482 33.1199C127.058 31.2479 129.458 32.2079 128.978 33.7439C127.466 38.6159 125.114 42.6959 122.09 46.0559C126.722 49.7999 132.458 52.5599 139.778 54.1919C141.602 54.5999 141.17 57.3359 139.25 56.9759C131.786 55.5359 125.33 52.5119 120.29 47.9039C114.89 52.9679 107.786 56.0639 99.7457 57.4079ZM100.178 23.2319C100.178 22.8479 100.466 22.5599 100.85 22.5599H136.13C137.138 22.5599 137.762 22.0799 138.434 22.0799C139.106 22.0799 139.586 22.5359 139.586 23.1839C139.586 23.8559 139.106 24.3359 138.434 24.3359C137.762 24.3359 137.138 23.9519 136.178 23.9519H100.85C100.466 23.9519 100.178 23.6639 100.178 23.2319ZM100.802 38.6879C105.89 35.7119 109.538 31.5359 112.082 26.3999C112.898 24.7679 115.058 25.8719 114.482 27.3599C112.274 32.9279 106.61 37.7279 101.042 39.4079C100.658 39.5039 100.394 38.9279 100.802 38.6879ZM114.338 14.3999C114.026 14.1839 114.242 13.6319 114.674 13.7279C118.034 14.4479 121.298 16.0799 123.266 19.1519C124.37 20.7839 122.21 22.2239 121.106 20.7839C118.994 18.1439 117.266 16.3199 114.338 14.3999ZM124.706 26.3039C124.298 26.0159 124.634 25.4159 125.066 25.5599C130.682 27.9119 135.218 31.1519 138.434 35.9999C139.442 37.5839 137.57 39.4559 136.226 37.6319C132.818 32.9759 128.882 29.3279 124.706 26.3039Z" fill="#333333"/>
<path d="M155.762 57.4079C155.378 57.5519 155.09 56.9759 155.45 56.7359C161.306 52.8479 163.586 47.3279 163.586 40.5599V37.6799C163.586 36.9839 164.114 36.4799 164.834 36.4799C165.53 36.5279 166.034 37.0319 166.034 37.6799V41.1839C166.034 49.3439 162.434 54.9119 155.762 57.4079ZM147.074 26.9279C146.762 26.7119 146.93 26.1599 147.362 26.2559C150.818 27.1199 154.13 29.1839 155.666 31.7759C156.674 33.5999 154.562 34.9439 153.458 33.4559C151.682 31.0559 149.378 28.6079 147.074 26.9279ZM147.746 53.1359C151.826 49.1519 154.994 43.9199 156.674 37.6799C156.794 37.2479 157.442 37.3439 157.442 37.7759C157.442 44.7839 153.842 51.7439 149.378 55.3439C148.034 56.4479 146.354 54.4319 147.746 53.1359ZM149.714 15.7919C149.402 15.5759 149.57 15.0239 150.002 15.1199C153.458 15.9839 156.77 18.0479 158.306 20.6399C159.314 22.4639 157.202 23.8079 156.098 22.3199C154.322 19.9199 152.018 17.4719 149.714 15.7919ZM159.602 22.6079C159.602 22.2479 159.866 21.9839 160.226 21.9839H183.506C184.466 21.9839 185.042 21.6479 185.618 21.6479C186.218 21.6479 186.626 22.0559 186.626 22.6079C186.626 23.2319 186.218 23.6639 185.618 23.6639C185.042 23.6639 184.466 23.2319 183.554 23.2319H171.386C169.754 26.7839 167.618 29.9039 164.834 32.8079C167.762 32.5919 173.378 32.2319 180.098 31.9679C180.962 31.9679 180.962 33.2159 180.146 33.2159C173.642 33.4799 167.522 33.8399 163.49 34.1519L162.266 35.2799C161.114 36.2879 159.482 34.4639 160.778 33.3119C164.042 30.3839 166.802 27.1199 168.746 23.2319H160.226C159.866 23.2319 159.602 22.9679 159.602 22.6079ZM167.858 14.6879C167.57 14.4479 167.738 13.9679 168.146 14.0639C170.738 14.6399 174.026 16.6319 175.346 18.8159C176.306 20.3999 174.434 21.8879 173.234 20.3519C171.506 18.1439 170.018 16.4159 167.858 14.6879ZM171.098 55.1279V37.8959C171.098 37.1759 171.602 36.6719 172.322 36.6719C173.042 36.6719 173.546 37.1759 173.546 37.8959V55.1279C173.546 55.8479 173.042 56.3519 172.322 56.3519C171.602 56.3519 171.098 55.8479 171.098 55.1279ZM176.93 25.9679C176.69 25.7279 176.978 25.2479 177.314 25.3919C180.818 26.9759 184.418 30.2399 185.858 33.2639C186.818 35.3279 184.418 36.2399 183.506 34.6559C181.49 31.0559 179.378 28.4159 176.93 25.9679ZM178.61 51.5759V37.6319C178.61 36.9119 179.138 36.3839 179.858 36.3839C180.554 36.3839 181.058 36.9119 181.058 37.6319V51.3119C181.058 53.1599 181.994 54.0719 183.698 54.0719H184.562C186.626 54.0719 187.73 52.5599 188.21 49.3439C188.258 48.8639 188.93 48.9599 188.978 49.3439C189.65 53.9519 188.018 56.4479 184.562 56.4479H183.53C180.938 56.4479 178.61 54.7679 178.61 51.5759Z" fill="#333333"/>
</svg>
