<svg width="320" height="120" viewBox="0 0 320 120" fill="none" xmlns="http://www.w3.org/2000/svg">
<path d="M43.1589 95.5998C42.5589 96.0798 41.8789 95.1998 42.3189 94.6398C50.5589 85.3598 54.7189 76.8798 57.3189 60.1998C57.9189 56.3198 58.1589 48.7198 58.1589 40.9598V25.8398C58.1589 24.7198 58.9989 23.9198 60.1589 23.9198C61.2789 23.9198 62.0789 24.7198 62.0789 25.8398V40.9598C62.0789 48.7198 61.8389 57.2398 61.1189 61.8398C58.3189 80.2398 52.0789 88.4798 43.1589 95.5998ZM4.87891 42.5598C4.87891 41.9598 5.31891 41.5198 5.91891 41.5198H14.6389V25.5998C14.6389 24.4398 15.5189 23.5998 16.7189 23.5998C17.8789 23.5998 18.7189 24.4398 18.7189 25.5998V41.5198H22.5589C24.0789 41.5198 25.0389 40.8798 25.9989 40.8798C26.9989 40.8798 27.6789 41.5598 27.6789 42.5598C27.6789 43.4798 26.9989 44.1598 25.9989 44.1598C25.0389 44.1598 24.0789 43.5998 22.6389 43.5998H18.7189V59.9198C21.0389 58.7598 23.3189 57.3198 25.9189 55.4398C26.5589 54.9598 27.2789 55.7198 26.7189 56.3998C24.3189 59.2798 21.6789 61.6798 18.7189 63.6798V83.9998C18.7189 92.9598 13.8789 97.1198 5.99891 95.3598C5.27891 95.1998 5.35891 94.1198 5.99891 94.0798C13.0389 93.4398 14.6389 90.7198 14.6389 82.4798V66.0798C12.6389 67.1198 10.4389 67.9998 8.07891 68.7998C5.19891 69.6798 4.23891 65.5198 6.71891 64.7198C9.71891 63.6798 12.2789 62.7998 14.6389 61.7998V43.5998H5.91891C5.31891 43.5998 4.87891 43.1598 4.87891 42.5598ZM21.9189 80.7998C27.1989 73.4398 31.8389 63.7198 35.0389 48.6398H25.7589C25.1589 48.6398 24.7189 48.1998 24.7189 47.5998C24.7189 46.9998 25.1589 46.5598 25.7589 46.5598H35.8389V34.8798C35.8389 33.7598 36.6789 32.9598 37.8389 32.9598C38.9589 32.9598 39.7589 33.7598 39.7589 34.8798V46.5598H44.5589C46.0789 46.5598 47.0389 45.9198 47.9989 45.9198C48.9989 45.9198 49.6789 46.5998 49.6789 47.5998C49.6789 48.5998 48.9989 49.2798 47.9989 49.2798C47.0389 49.2798 46.0789 48.6398 44.7189 48.6398H39.7589V93.9998C39.7589 95.1198 38.9589 95.9198 37.8389 95.9198C36.6789 95.9198 35.8389 95.1198 35.8389 93.9998V60.5998C32.6789 69.3198 28.1189 76.5198 22.8789 81.6798C22.3189 82.2398 21.5189 81.4398 21.9189 80.7998ZM26.6389 32.1198C33.5189 30.3598 39.3589 27.7598 45.1989 23.9198C47.6789 22.3198 49.5189 25.8398 47.2789 27.3598C41.3589 31.1998 34.0789 33.2798 26.7989 33.2798C26.0789 33.2798 25.9989 32.2798 26.6389 32.1198ZM41.4389 58.0798C41.1189 57.5998 41.4389 56.8798 42.1589 57.1998C44.9589 58.6398 49.3589 61.6798 50.7989 65.7598C51.8389 68.6398 48.3989 70.1598 47.0389 67.4398C45.2789 63.8398 43.6789 60.9598 41.4389 58.0798ZM47.7589 55.1198C51.5189 49.8398 52.7589 45.3598 53.9589 39.4398C54.1189 38.6798 55.1589 38.7198 55.1989 39.4398C55.6389 45.8398 54.6389 53.7598 50.7989 57.8398C48.8789 59.8398 46.2389 57.3598 47.7589 55.1198ZM61.7589 66.0798C61.6789 65.3598 62.8789 65.1998 63.0389 65.8398C65.7589 75.3598 70.4789 83.9198 75.4389 90.9598C77.6789 94.0798 73.7589 96.8798 71.5989 93.9998C66.1589 86.5598 62.7189 76.3198 61.7589 66.0798ZM63.5589 57.2798C67.2389 51.2798 68.0789 46.5598 68.8789 40.0798C69.1989 37.5998 73.1189 37.7598 72.8789 40.8798C72.3989 47.3598 69.3589 54.0798 64.5589 57.9998C63.9189 58.5198 63.2389 57.7998 63.5589 57.2798Z" fill="#333333"/>
<path d="M88.5589 95.6798C87.6789 95.7598 87.5189 94.4798 88.3989 94.3198C102.279 91.1198 113.879 86.3198 122.799 78.7998C117.679 73.3998 113.719 66.9998 111.119 59.9998C110.879 59.1998 111.839 58.5598 112.399 59.4398C116.159 65.7998 120.479 71.4798 125.679 76.1998C131.479 70.5598 135.959 63.5598 139.079 54.7998H109.159C105.399 68.1198 98.5989 80.3598 85.5989 89.0398C84.7189 89.5998 84.1189 88.4798 84.7189 87.9198C99.9189 73.5598 105.279 57.0398 107.799 39.9198H86.5589C85.9589 39.9198 85.5189 39.4398 85.5189 38.7998C85.5189 38.1598 85.9589 37.6798 86.5589 37.6798H108.079C108.639 33.6398 108.999 29.5198 109.359 25.4398C109.599 22.7998 113.919 22.9598 113.679 25.8398C113.399 29.7598 112.999 33.7198 112.519 37.6798H147.919C149.519 37.6798 150.479 37.0398 151.519 37.0398C152.559 37.0398 153.279 37.7598 153.279 38.7998C153.279 39.8398 152.559 40.5598 151.519 40.5598C150.479 40.5598 149.519 39.9198 147.999 39.9198H112.199C111.599 44.1998 110.799 48.4798 109.719 52.6398H139.799L140.239 51.2798C141.199 48.1598 145.279 49.4398 144.479 52.4798C141.639 63.2398 136.279 72.0798 128.919 78.9198C135.479 84.0398 143.359 87.8398 153.199 89.9998C156.559 90.7198 155.759 95.4398 152.399 94.7998C141.839 92.7598 132.839 88.0798 125.719 81.6798C115.959 89.4398 103.199 94.1998 88.5589 95.6798Z" fill="#333333"/>
<path d="M166.239 95.6798C165.439 95.7598 165.199 94.6398 165.999 94.3998C178.879 90.4798 189.479 84.8398 197.479 76.8798C192.639 71.7198 188.759 65.5198 185.999 58.3198C185.759 57.5198 186.919 56.9998 187.319 57.6798C190.999 63.8398 195.199 69.2798 200.199 73.9198C204.799 68.6398 208.359 62.4398 210.799 55.1998C211.759 52.0798 215.759 53.6798 214.959 56.2398C212.439 64.3598 208.519 71.1598 203.479 76.7598C211.199 82.9998 220.759 87.5998 232.959 90.3198C235.999 90.9998 235.279 95.5598 232.079 94.9598C219.639 92.5598 208.879 87.5198 200.479 79.8398C191.479 88.2798 179.639 93.4398 166.239 95.6798ZM166.959 38.7198C166.959 38.0798 167.439 37.5998 168.079 37.5998H226.879C228.559 37.5998 229.599 36.7998 230.719 36.7998C231.839 36.7998 232.639 37.5598 232.639 38.6398C232.639 39.7598 231.839 40.5598 230.719 40.5598C229.599 40.5598 228.559 39.9198 226.959 39.9198H168.079C167.439 39.9198 166.959 39.4398 166.959 38.7198ZM167.999 64.4798C176.479 59.5198 182.559 52.5598 186.799 43.9998C188.159 41.2798 191.759 43.1198 190.799 45.5998C187.119 54.8798 177.679 62.8798 168.399 65.6798C167.759 65.8398 167.319 64.8798 167.999 64.4798ZM190.559 23.9998C190.039 23.6398 190.399 22.7198 191.119 22.8798C196.719 24.0798 202.159 26.7998 205.439 31.9198C207.279 34.6398 203.679 37.0398 201.839 34.6398C198.319 30.2398 195.439 27.1998 190.559 23.9998ZM207.839 43.8398C207.159 43.3598 207.719 42.3598 208.439 42.5998C217.799 46.5198 225.359 51.9198 230.719 59.9998C232.399 62.6398 229.279 65.7598 227.039 62.7198C221.359 54.9598 214.799 48.8798 207.839 43.8398Z" fill="#333333"/>
<path d="M259.599 95.6798C258.959 95.9198 258.479 94.9598 259.079 94.5598C268.839 88.0798 272.639 78.8798 272.639 67.5998V62.7998C272.639 61.6398 273.519 60.7998 274.719 60.7998C275.879 60.8798 276.719 61.7198 276.719 62.7998V68.6398C276.719 82.2398 270.719 91.5198 259.599 95.6798ZM245.119 44.8798C244.599 44.5198 244.879 43.5998 245.599 43.7598C251.359 45.1998 256.879 48.6398 259.439 52.9598C261.119 55.9998 257.599 58.2398 255.759 55.7598C252.799 51.7598 248.959 47.6798 245.119 44.8798ZM246.239 88.5598C253.039 81.9198 258.319 73.1998 261.119 62.7998C261.319 62.0798 262.399 62.2398 262.399 62.9598C262.399 74.6398 256.399 86.2398 248.959 92.2398C246.719 94.0798 243.919 90.7198 246.239 88.5598ZM249.519 26.3198C248.999 25.9598 249.279 25.0398 249.999 25.1998C255.759 26.6398 261.279 30.0798 263.839 34.3998C265.519 37.4398 261.999 39.6798 260.159 37.1998C257.199 33.1998 253.359 29.1198 249.519 26.3198ZM265.999 37.6798C265.999 37.0798 266.439 36.6398 267.039 36.6398H305.839C307.439 36.6398 308.399 36.0798 309.359 36.0798C310.359 36.0798 311.039 36.7598 311.039 37.6798C311.039 38.7198 310.359 39.4398 309.359 39.4398C308.399 39.4398 307.439 38.7198 305.919 38.7198H285.639C282.919 44.6398 279.359 49.8398 274.719 54.6798C279.599 54.3198 288.959 53.7198 300.159 53.2798C301.599 53.2798 301.599 55.3598 300.239 55.3598C289.399 55.7998 279.199 56.3998 272.479 56.9198L270.439 58.7998C268.519 60.4798 265.799 57.4398 267.959 55.5198C273.399 50.6398 277.999 45.1998 281.239 38.7198H267.039C266.439 38.7198 265.999 38.2798 265.999 37.6798ZM279.759 24.4798C279.279 24.0798 279.559 23.2798 280.239 23.4398C284.559 24.3998 290.039 27.7198 292.239 31.3598C293.839 33.9998 290.719 36.4798 288.719 33.9198C285.839 30.2398 283.359 27.3598 279.759 24.4798ZM285.159 91.8798V63.1598C285.159 61.9598 285.999 61.1198 287.199 61.1198C288.399 61.1198 289.239 61.9598 289.239 63.1598V91.8798C289.239 93.0798 288.399 93.9198 287.199 93.9198C285.999 93.9198 285.159 93.0798 285.159 91.8798ZM294.879 43.2798C294.479 42.8798 294.959 42.0798 295.519 42.3198C301.359 44.9598 307.359 50.3998 309.759 55.4398C311.359 58.8798 307.359 60.3998 305.839 57.7598C302.479 51.7598 298.959 47.3598 294.879 43.2798ZM297.679 85.9598V62.7198C297.679 61.5198 298.559 60.6398 299.759 60.6398C300.919 60.6398 301.759 61.5198 301.759 62.7198V85.5198C301.759 88.5998 303.319 90.1198 306.159 90.1198H307.599C311.039 90.1198 312.879 87.5998 313.679 82.2398C313.759 81.4398 314.879 81.5998 314.959 82.2398C316.079 89.9198 313.359 94.0798 307.599 94.0798H305.879C301.559 94.0798 297.679 91.2798 297.679 85.9598Z" fill="#333333"/>
</svg>
