<svg width="19" height="18" viewBox="0 0 19 18" fill="none" xmlns="http://www.w3.org/2000/svg">
<path d="M11.625 7.00781V9.78125C11.625 9.85938 11.5469 9.89844 11.4688 9.89844H11.0391C11 9.89844 10.9609 9.85938 10.9219 9.85938L9.67188 8.14062V9.78125C9.67188 9.85938 9.59375 9.89844 9.55469 9.89844H9.08594C9.00781 9.89844 8.96875 9.85938 8.96875 9.78125V7.00781C8.96875 6.92969 9.00781 6.89062 9.08594 6.89062H9.55469C9.59375 6.89062 9.63281 6.89062 9.63281 6.92969L10.9219 8.64844V7.00781C10.9219 6.92969 10.9609 6.89062 11.0391 6.89062H11.4688C11.5469 6.85156 11.625 6.92969 11.625 7.00781ZM8.42188 6.85156C8.46094 6.85156 8.53906 6.92969 8.53906 7.00781V9.78125C8.53906 9.85938 8.46094 9.89844 8.42188 9.89844H7.95312C7.875 9.89844 7.83594 9.85938 7.83594 9.78125V7.00781C7.83594 6.92969 7.875 6.85156 7.95312 6.85156H8.42188ZM7.32812 9.19531C7.40625 9.19531 7.44531 9.27344 7.44531 9.3125V9.78125C7.44531 9.82031 7.40625 9.89844 7.32812 9.89844H5.53125C5.49219 9.89844 5.49219 9.85938 5.45312 9.85938C5.45312 9.82031 5.41406 9.82031 5.41406 9.78125V7.00781C5.41406 6.92969 5.49219 6.85156 5.53125 6.85156H6C6.07812 6.85156 6.11719 6.92969 6.11719 7.00781V9.19531H7.32812ZM13.9688 6.85156C14.0078 6.85156 14.0859 6.92969 14.0859 7.00781V7.4375C14.0859 7.51562 14.0078 7.55469 13.9688 7.55469H12.7578V8.02344H13.9688C14.0078 8.02344 14.0859 8.10156 14.0859 8.14062V8.60938C14.0859 8.6875 14.0078 8.72656 13.9688 8.72656H12.7578V9.19531H13.9688C14.0078 9.19531 14.0859 9.27344 14.0859 9.3125V9.78125C14.0859 9.85938 14.0078 9.89844 13.9688 9.89844H12.1719C12.0938 9.89844 12.0547 9.82031 12.0547 9.78125V7.00781C12.0547 6.92969 12.0938 6.85156 12.1719 6.85156H13.9688ZM18.5 3.45312V14.5859C18.4609 16.3438 17.0547 17.7891 15.2969 17.75H4.16406C2.40625 17.75 0.960938 16.3438 1 14.5859V3.41406C1 1.69531 2.40625 0.25 4.16406 0.25H15.3359C17.0547 0.289062 18.5 1.69531 18.5 3.45312ZM16.0781 8.25781C16.0781 5.40625 13.2266 3.0625 9.71094 3.0625C6.19531 3.0625 3.34375 5.40625 3.34375 8.25781C3.34375 10.7969 5.60938 12.9453 8.65625 13.3359C9.39844 13.4922 9.32031 13.7656 9.16406 14.7812C9.125 14.9375 9.00781 15.4062 9.71094 15.1328C10.375 14.8594 13.3828 12.9844 14.7109 11.4219C15.6484 10.4062 16.0781 9.39062 16.0781 8.25781Z" fill="#EDF1F9"/>
</svg>
