<svg width="18" height="18" viewBox="0 0 18 18" fill="none" xmlns="http://www.w3.org/2000/svg">
<path d="M16.2449 5.87761L16.2449 5.87751L16.2351 5.87602L12.1687 5.26017L10.3173 1.35345C10.0866 0.837178 9.57908 0.5 9.01514 0.5C8.42963 0.5 7.91612 0.829485 7.68201 1.35495L5.85984 5.26015L1.76544 5.87594L1.76542 5.87583L1.7551 5.87761C1.21384 5.97064 0.759547 6.34597 0.578868 6.89735C0.399274 7.41462 0.529102 8.02419 0.945944 8.41478L3.91011 11.4423L3.2233 15.7512C3.22327 15.7514 3.22324 15.7515 3.22322 15.7517C3.13509 16.2981 3.34996 16.853 3.79485 17.1874C4.25876 17.5929 4.90753 17.5593 5.33873 17.337L5.33882 17.3371L5.35108 17.3304L9.0142 15.3097L12.6475 17.3296L12.6626 17.338L12.6782 17.3453C13.1373 17.5605 13.741 17.5856 14.2255 17.1948C14.6772 16.8611 14.896 16.3019 14.807 15.7512L14.8066 15.7491L14.0913 11.4409L17.054 8.41479C17.4709 8.02421 17.6007 7.41466 17.4211 6.89739C17.2405 6.34598 16.7862 5.97064 16.2449 5.87761Z" fill="white" stroke="#333333"/>
</svg>
